<svg viewBox="0 0 234 43" xmlns="http://www.w3.org/2000/svg" data-logo="logo">
        <g style="opacity: 1;" transform="translate(0, 1) rotate(0)" id="logogram"><path fill="#FE8B00" d="M40.207 22.1241H33.0426C26.7844 22.1241 21.7112 27.1973 21.7112 33.4555V40.6199C31.5885 39.8876 39.4747 32.0014 40.207 22.1241Z"></path><path fill="#FE8B00" d="M18.7029 40.6199V33.4555C18.7029 27.1973 13.6296 22.1241 7.37148 22.1241H0.207031C0.939394 32.0014 8.8256 39.8876 18.7029 40.6199Z"></path><path fill="#FE8B00" d="M40.207 19.1158C39.4747 9.23851 31.5885 1.3523 21.7112 0.619934V7.78438C21.7112 14.0425 26.7844 19.1158 33.0426 19.1158H40.207Z"></path><path fill="#FE8B00" d="M18.7029 0.619934C8.8256 1.3523 0.939394 9.23851 0.207031 19.1158H7.37148C13.6296 19.1158 18.7029 14.0425 18.7029 7.78438V0.619934Z"></path><path fill="#007B9A" d="M13.7722 20.6197C16.5524 19.2306 18.8182 16.9648 20.2073 14.1846C21.5963 16.9648 23.8621 19.2306 26.6423 20.6197C23.8621 22.0087 21.5963 24.2745 20.2073 27.0547C18.8182 24.2745 16.5524 22.0087 13.7722 20.6197Z"></path></g>
        <g style="opacity: 1;" transform="translate(47, 6.5)" id="logotype"><path d="M14.40 30L6.88 2.08L12.92 2.08L18.56 26.88L17.04 26.88L23.48 2.08L29.76 2.08L35.92 26.92L34.32 26.92L40.04 2.08L46.12 2.08L38.32 30L31.68 30L25.92 8.16L27.04 8.16L21.04 30L14.40 30ZM53.20 30.28L53.20 30.28Q50.28 30.28 48.04 28.82Q45.80 27.36 44.52 24.78Q43.24 22.20 43.24 18.92L43.24 18.92Q43.24 15.60 44.52 13.04Q45.80 10.48 48.04 9.02Q50.28 7.56 53.20 7.56L53.20 7.56Q55.84 7.56 57.80 8.92Q59.76 10.28 60.64 12.68L60.64 12.68L60.64 7.84L66.32 7.84L66.32 30L63.60 30Q62.24 30 61.44 29.18Q60.64 28.36 60.64 27L60.64 27L60.64 25.12Q59.76 27.56 57.80 28.92Q55.84 30.28 53.20 30.28ZM54.80 25.36L54.80 25.36Q56.36 25.36 57.68 24.60Q59 23.84 59.82 22.40Q60.64 20.96 60.64 18.92L60.64 18.92Q60.64 16.84 59.82 15.40Q59 13.96 57.68 13.22Q56.36 12.48 54.80 12.48L54.80 12.48Q53.32 12.48 51.98 13.22Q50.64 13.96 49.82 15.40Q49 16.84 49 18.92L49 18.92Q49 20.96 49.82 22.40Q50.64 23.84 51.98 24.60Q53.32 25.36 54.80 25.36ZM73.96 30L68.32 30L68.32 7.84L73.96 7.84L73.96 12.52Q74.48 11.04 75.56 9.92Q76.64 8.80 78.08 8.18Q79.52 7.56 81.04 7.56L81.04 7.56Q83.56 7.56 85.46 8.68Q87.36 9.80 88.40 11.90Q89.44 14 89.44 16.96L89.44 16.96L89.44 30L83.84 30L83.84 18Q83.84 15.36 82.48 13.86Q81.12 12.36 78.92 12.36L78.92 12.36Q77.44 12.36 76.32 13.14Q75.20 13.92 74.58 15.28Q73.96 16.64 73.96 18.40L73.96 18.40L73.96 30ZM99.80 30.28L99.80 30.28Q96.88 30.28 94.64 28.82Q92.40 27.36 91.12 24.78Q89.84 22.20 89.84 18.92L89.84 18.92Q89.84 15.60 91.12 13.04Q92.40 10.48 94.64 9.02Q96.88 7.56 99.80 7.56L99.80 7.56Q102.44 7.56 104.40 8.92Q106.36 10.28 107.24 12.68L107.24 12.68L107.24 0.40L112.92 0.40L112.92 30L110.20 30Q108.84 30 108.04 29.18Q107.24 28.36 107.24 27L107.24 27L107.24 25.12Q106.36 27.56 104.40 28.92Q102.44 30.28 99.80 30.28ZM101.40 25.36L101.40 25.36Q102.96 25.36 104.28 24.60Q105.60 23.84 106.42 22.40Q107.24 20.96 107.24 18.92L107.24 18.92Q107.24 16.84 106.42 15.40Q105.60 13.96 104.28 13.22Q102.96 12.48 101.40 12.48L101.40 12.48Q99.92 12.48 98.58 13.22Q97.24 13.96 96.42 15.40Q95.60 16.84 95.60 18.92L95.60 18.92Q95.60 20.96 96.42 22.40Q97.24 23.84 98.58 24.60Q99.92 25.36 101.40 25.36ZM125.44 30.28L125.44 30.28Q122.88 30.28 120.70 29.48Q118.52 28.68 116.90 27.20Q115.28 25.72 114.38 23.66Q113.48 21.60 113.48 19.08L113.48 19.08Q113.48 16.48 114.40 14.36Q115.32 12.24 116.96 10.72Q118.60 9.20 120.72 8.38Q122.84 7.56 125.20 7.56L125.20 7.56Q127.20 7.56 128.96 8.10Q130.72 8.64 132.06 9.62Q133.40 10.60 134.14 11.96Q134.88 13.32 134.88 14.92L134.88 14.92Q134.88 17 133.68 18.40Q132.48 19.80 130.50 20.62Q128.52 21.44 126.16 21.74Q123.80 22.04 121.52 21.96L121.52 21.96Q121.16 21.92 120.68 21.92Q120.20 21.92 119.82 21.90Q119.44 21.88 119.32 21.88L119.32 21.88Q119.56 22.96 120.46 23.88Q121.36 24.80 122.68 25.30Q124 25.80 125.52 25.80L125.52 25.80Q126.84 25.80 128.08 25.36Q129.32 24.92 130.38 24.14Q131.44 23.36 132.12 22.44L132.12 22.44L136 25.36Q134.72 27.04 133.04 28.14Q131.36 29.24 129.44 29.76Q127.52 30.28 125.44 30.28ZM121.72 17.92L121.72 17.92Q123.04 17.92 124.38 17.80Q125.72 17.68 126.86 17.34Q128 17 128.70 16.38Q129.40 15.76 129.40 14.80L129.40 14.80Q129.40 14 128.86 13.38Q128.32 12.76 127.42 12.38Q126.52 12 125.36 12L125.36 12Q123.52 12 122.10 12.84Q120.68 13.68 119.88 15.02Q119.08 16.36 119 17.80L119 17.80Q119.48 17.84 120.20 17.88Q120.92 17.92 121.72 17.92ZM141.84 30L136.20 30L136.20 7.84L141.84 7.84L141.84 30ZM141.84 19.64L140.64 19.64L141.84 12.92Q142.60 10.44 144.42 9Q146.24 7.56 148.76 7.56L148.76 7.56L148.76 13.48Q148.40 13.36 148.06 13.34Q147.72 13.32 147.36 13.32L147.36 13.32Q145.80 13.32 144.54 14.04Q143.28 14.76 142.56 16.16Q141.84 17.56 141.84 19.64L141.84 19.64ZM157.36 2.08L163.88 2.08L173.96 30L168 30L159.40 5.04L161.80 5.04L153.20 30L147.28 30L157.36 2.08ZM151.56 24.68L153 20.20L167.80 20.20L169.24 24.68L151.56 24.68ZM185.80 30L173.92 30L173.92 25.44L177.04 25.44L177.04 6.64L173.92 6.64L173.92 2.08L185.80 2.08L185.80 6.64L182.68 6.64L182.68 25.44L185.80 25.44L185.80 30Z" fill="#007b9a"></path></g>
        
      </svg>