<svg xmlns="http://www.w3.org/2000/svg" xmlns:xlink="http://www.w3.org/1999/xlink" width="374" zoomAndPan="magnify" viewBox="0 0 280.5 137.249994" height="183" preserveAspectRatio="xMidYMid meet" version="1.2"><defs><clipPath id="be50ec066f"><path d="M 128.449219 65.300781 L 158.285156 65.300781 L 158.285156 95.136719 L 128.449219 95.136719 Z M 128.449219 65.300781 "/></clipPath><clipPath id="a6788f0b70"><path d="M 0.511719 94 L 155 94 L 155 135 L 0.511719 135 Z M 0.511719 94 "/></clipPath><clipPath id="2d591f6514"><path d="M 140 124 L 277 124 L 277 136.503906 L 140 136.503906 Z M 140 124 "/></clipPath></defs><g id="0a9e0264c4"><path style=" stroke:none;fill-rule:nonzero;fill:#ffffff;fill-opacity:1;" d="M 132.804688 69.910156 C 132.753906 69.839844 132.753906 69.738281 132.820312 69.671875 C 132.886719 69.605469 132.988281 69.601562 133.058594 69.65625 L 140.035156 75.035156 C 140.085938 75.078125 140.117188 75.136719 140.105469 75.199219 L 139.925781 76.617188 C 139.910156 76.699219 139.84375 76.761719 139.765625 76.777344 L 138.351562 76.957031 L 138.324219 76.957031 C 138.269531 76.957031 138.21875 76.929688 138.183594 76.886719 Z M 132.804688 69.910156 "/><path style=" stroke:none;fill-rule:nonzero;fill:#ffffff;fill-opacity:1;" d="M 139.925781 83.824219 L 140.105469 85.242188 C 140.113281 85.304688 140.085938 85.363281 140.035156 85.40625 L 133.058594 90.78125 C 133.03125 90.800781 132.988281 90.816406 132.953125 90.816406 C 132.90625 90.816406 132.855469 90.796875 132.820312 90.765625 C 132.753906 90.699219 132.753906 90.601562 132.804688 90.527344 L 138.183594 83.550781 C 138.226562 83.5 138.289062 83.472656 138.351562 83.480469 L 139.765625 83.664062 C 139.84375 83.675781 139.910156 83.734375 139.925781 83.824219 Z M 139.925781 83.824219 "/><path style=" stroke:none;fill-rule:nonzero;fill:#ffffff;fill-opacity:1;" d="M 153.929688 90.527344 C 153.988281 90.601562 153.980469 90.699219 153.914062 90.765625 C 153.878906 90.796875 153.835938 90.816406 153.785156 90.816406 C 153.75 90.816406 153.703125 90.800781 153.675781 90.78125 L 146.703125 85.40625 C 146.652344 85.363281 146.625 85.304688 146.632812 85.242188 L 146.816406 83.824219 C 146.828125 83.738281 146.894531 83.679688 146.972656 83.664062 L 148.390625 83.484375 C 148.445312 83.476562 148.511719 83.503906 148.558594 83.554688 Z M 153.929688 90.527344 "/><path style=" stroke:none;fill-rule:nonzero;fill:#ffffff;fill-opacity:1;" d="M 146.8125 76.613281 L 146.628906 75.199219 C 146.625 75.132812 146.652344 75.074219 146.699219 75.03125 L 153.675781 69.652344 C 153.75 69.597656 153.851562 69.601562 153.914062 69.667969 C 153.980469 69.734375 153.988281 69.835938 153.929688 69.90625 L 148.558594 76.882812 C 148.519531 76.929688 148.46875 76.957031 148.414062 76.957031 L 148.394531 76.957031 L 146.976562 76.773438 C 146.890625 76.761719 146.828125 76.695312 146.8125 76.613281 Z M 146.8125 76.613281 "/><g clip-rule="nonzero" clip-path="url(#be50ec066f)"><path style=" stroke:none;fill-rule:nonzero;fill:#ffffff;fill-opacity:1;" d="M 158.285156 80.21875 C 158.285156 80.316406 158.222656 80.386719 158.128906 80.402344 L 145.222656 82.074219 L 143.550781 94.980469 C 143.535156 95.070312 143.464844 95.136719 143.367188 95.136719 C 143.273438 95.136719 143.203125 95.070312 143.1875 94.980469 L 141.515625 82.074219 L 128.609375 80.402344 C 128.515625 80.386719 128.449219 80.316406 128.449219 80.21875 C 128.449219 80.125 128.515625 80.050781 128.609375 80.039062 L 141.515625 78.367188 L 143.1875 65.460938 C 143.203125 65.367188 143.273438 65.300781 143.367188 65.300781 C 143.464844 65.300781 143.535156 65.367188 143.550781 65.460938 L 145.222656 78.367188 L 158.128906 80.039062 C 158.222656 80.050781 158.285156 80.125 158.285156 80.21875 Z M 158.285156 80.21875 "/></g><path style=" stroke:none;fill-rule:evenodd;fill:#fe8b00;fill-opacity:1;" d="M 141.664062 26.195312 C 187.925781 26.195312 227.40625 55.230469 242.9375 96.089844 C 242.097656 95.878906 241.261719 95.671875 240.417969 95.5 C 239.496094 95.304688 238.488281 95.117188 237.546875 95.085938 C 229 94.8125 220.5 94.300781 211.960938 95.152344 C 209.851562 95.359375 206.191406 96.132812 205.988281 98.757812 C 205.945312 99.265625 206.0625 99.714844 206.300781 100.074219 C 205.566406 100.746094 204.8125 101.402344 204.039062 102.035156 C 203.574219 102.421875 202.113281 102.054688 201.578125 101.953125 C 201.535156 101.941406 201.5 101.941406 201.460938 101.9375 C 191.789062 101.078125 182.140625 101.15625 172.519531 102.519531 C 171.277344 102.691406 170.578125 103.335938 169.96875 104.371094 C 169.945312 104.414062 169.921875 104.453125 169.902344 104.5 C 169.5625 105.226562 169.875 106.097656 170.601562 106.433594 C 170.613281 106.4375 170.625 106.445312 170.628906 106.449219 C 170.671875 106.46875 170.71875 106.480469 170.757812 106.5 C 174.5625 107.773438 176.390625 109.910156 178.664062 113.105469 C 180.421875 115.570312 182.109375 118.085938 183.90625 120.527344 C 184.96875 121.96875 186.070312 123.382812 187.257812 124.726562 L 159.449219 125.304688 C 159.445312 125.304688 159.4375 125.304688 159.433594 125.304688 L 140.933594 125.988281 C 140.472656 126 140.089844 126.242188 139.871094 126.644531 C 139.804688 126.757812 139.765625 126.875 139.734375 127 C 139.007812 126.691406 138.328125 126.289062 137.675781 125.847656 C 135.828125 124.613281 134.226562 123.183594 132.171875 122.242188 C 132.121094 122.21875 132.074219 122.195312 132.019531 122.183594 C 129.121094 121.296875 126.3125 120.144531 123.636719 118.71875 C 123.621094 118.707031 123.601562 118.703125 123.585938 118.691406 C 122.121094 118 120.835938 117.054688 119.796875 115.804688 C 118.117188 113.792969 113.878906 112.253906 111.476562 111.078125 C 110.984375 110.835938 110.421875 110.847656 109.9375 111.121094 L 109.417969 111.414062 C 109.414062 111.414062 109.40625 111.421875 109.402344 111.421875 L 106.472656 113.125 C 102.714844 109.222656 98.980469 105.296875 95.28125 101.34375 C 94.960938 101.003906 94.585938 100.730469 94.164062 100.527344 C 93.746094 100.328125 93.273438 100.304688 92.835938 100.453125 C 89.785156 101.480469 86.644531 102.203125 83.445312 102.605469 C 83.394531 102.574219 83.316406 102.492188 83.289062 102.457031 C 82.296875 101.308594 81.488281 100.199219 80.222656 99.3125 C 78.132812 97.847656 76.039062 96.386719 73.9375 94.933594 C 72.703125 94.074219 71.746094 93.992188 70.320312 93.890625 L 62.191406 92.875 C 61.671875 92.8125 61.15625 92.988281 60.792969 93.359375 C 58.765625 95.417969 56.726562 97.460938 54.664062 99.484375 C 54.117188 100.019531 53.238281 100.457031 52.523438 100.699219 C 50.074219 101.515625 43.183594 103.324219 41.691406 105.140625 C 39.871094 107.34375 38.011719 109.507812 36.113281 111.640625 C 35.984375 111.789062 35.839844 111.921875 35.699219 112.058594 C 46.082031 63.007812 89.578125 26.195312 141.664062 26.195312 Z M 141.664062 26.195312 "/><path style=" stroke:none;fill-rule:evenodd;fill:#003333;fill-opacity:1;" d="M 155.523438 24.054688 C 158.765625 24.6875 161.414062 25.007812 163.582031 27.789062 C 163.605469 27.8125 163.617188 27.84375 163.617188 27.871094 C 163.617188 27.929688 163.5625 27.984375 163.5 27.984375 C 163.46875 27.984375 163.445312 27.972656 163.421875 27.953125 C 161.652344 26.636719 159.679688 25.769531 157.507812 25.347656 C 157.5 25.347656 157.496094 25.34375 157.488281 25.34375 C 157.449219 25.34375 157.414062 25.378906 157.414062 25.425781 C 157.414062 25.453125 157.429688 25.484375 157.460938 25.496094 C 158.261719 25.863281 160.878906 27.082031 161.238281 27.824219 C 161.25 27.855469 161.261719 27.882812 161.261719 27.917969 C 161.261719 28.042969 161.160156 28.136719 161.039062 28.136719 C 161.015625 28.136719 160.984375 28.136719 160.960938 28.125 C 159.503906 27.566406 158.007812 27.09375 156.492188 26.714844 C 156.308594 26.667969 156.304688 26.683594 156.460938 26.777344 C 158.363281 27.808594 160.039062 29.125 161.492188 30.722656 C 161.527344 30.761719 161.550781 30.808594 161.550781 30.863281 C 161.550781 30.976562 161.457031 31.070312 161.34375 31.070312 C 161.320312 31.070312 161.292969 31.0625 161.269531 31.050781 C 158.613281 30.015625 156.039062 28.941406 153.546875 27.835938 C 153.46875 27.800781 153.339844 27.800781 153.167969 27.835938 C 153.070312 27.859375 153.0625 27.894531 153.152344 27.949219 C 153.453125 28.125 153.648438 28.386719 153.742188 28.730469 C 153.753906 28.757812 153.753906 28.789062 153.753906 28.8125 C 153.753906 28.984375 153.617188 29.121094 153.445312 29.121094 C 153.429688 29.121094 153.410156 29.121094 153.394531 29.121094 L 146.074219 27.789062 C 145.910156 27.761719 145.867188 27.820312 145.949219 27.964844 C 145.980469 28.015625 146.015625 28.042969 146.066406 28.054688 C 146.851562 28.222656 147.507812 28.421875 148.046875 28.652344 C 148.199219 28.707031 148.304688 28.851562 148.304688 29.019531 C 148.304688 29.230469 148.132812 29.402344 147.921875 29.402344 C 147.878906 29.402344 147.839844 29.398438 147.796875 29.378906 C 146.660156 29.101562 145.574219 29.035156 144.546875 29.179688 C 143.363281 29.332031 142.710938 29.277344 141.640625 29.105469 C 141.5 29.082031 141.394531 29.136719 141.324219 29.265625 L 141.199219 29.496094 C 141.128906 29.632812 141.015625 29.703125 140.863281 29.710938 C 139.953125 29.746094 139.0625 29.863281 138.1875 30.070312 C 137.96875 30.125 137.96875 30.164062 138.195312 30.1875 C 138.644531 30.242188 138.984375 29.992188 139.378906 29.976562 C 143.75 29.785156 150.394531 30.089844 154.449219 31.980469 C 155.84375 32.628906 157.34375 34.136719 158.308594 35.773438 C 158.375 35.878906 158.386719 35.992188 158.347656 36.109375 C 158.191406 36.558594 159.054688 39.621094 159.15625 40.726562 C 159.167969 40.828125 159.136719 40.925781 159.082031 41.015625 C 158.960938 41.199219 158.746094 41.269531 158.59375 41.167969 C 158.523438 41.128906 158.476562 41.046875 158.464844 40.949219 L 158.296875 39.90625 C 158.28125 39.773438 158.234375 39.652344 158.164062 39.539062 L 156.945312 37.554688 C 156.886719 37.457031 156.816406 37.453125 156.734375 37.527344 L 156.5625 37.699219 C 156.511719 37.753906 156.433594 37.785156 156.355469 37.785156 C 156.246094 37.785156 156.136719 37.71875 156.089844 37.613281 C 155.613281 36.453125 154.941406 35.417969 154.066406 34.507812 C 154.046875 34.484375 154.023438 34.472656 154 34.460938 C 153.90625 34.425781 153.808594 34.480469 153.769531 34.574219 C 153.757812 34.597656 153.757812 34.628906 153.757812 34.65625 C 153.8125 35.113281 153.832031 35.597656 153.8125 36.109375 C 153.8125 36.292969 153.789062 36.386719 153.753906 36.386719 C 153.746094 36.394531 153.734375 36.394531 153.722656 36.394531 C 153.46875 36.425781 153.238281 36.230469 153.214844 35.964844 C 153.210938 35.949219 153.210938 35.9375 153.210938 35.925781 C 153.199219 34.929688 152.851562 34.078125 152.160156 33.375 C 152.125 33.339844 152.082031 33.316406 152.035156 33.304688 C 151.90625 33.269531 151.769531 33.355469 151.742188 33.492188 C 151.730469 33.539062 151.730469 33.585938 151.746094 33.632812 C 152.117188 34.679688 152.300781 35.757812 152.296875 36.867188 C 152.289062 36.980469 152.199219 37.066406 152.089844 37.066406 C 151.996094 37.066406 151.917969 37.007812 151.894531 36.921875 C 151.492188 35.359375 150.660156 34.082031 149.390625 33.085938 C 149.265625 32.992188 149.214844 33.019531 149.226562 33.171875 C 149.285156 33.882812 149.410156 34.574219 149.605469 35.246094 C 149.722656 35.65625 149.675781 35.976562 149.460938 36.199219 C 149.414062 36.253906 149.351562 36.277344 149.285156 36.277344 C 149.179688 36.277344 149.085938 36.210938 149.050781 36.109375 C 148.664062 35 148.027344 34.066406 147.128906 33.316406 C 146.617188 32.882812 146.492188 32.972656 146.757812 33.597656 C 146.929688 34 146.917969 34.390625 146.71875 34.769531 C 146.675781 34.847656 146.59375 34.894531 146.503906 34.894531 C 146.417969 34.894531 146.332031 34.847656 146.292969 34.761719 C 145.621094 33.457031 144.6875 32.398438 143.484375 31.589844 C 143.464844 31.570312 143.441406 31.566406 143.410156 31.558594 C 143.3125 31.535156 143.207031 31.601562 143.183594 31.707031 C 143.183594 31.738281 143.183594 31.761719 143.183594 31.785156 L 143.546875 33.640625 C 143.546875 33.65625 143.554688 33.683594 143.554688 33.707031 C 143.554688 33.917969 143.375 34.089844 143.164062 34.089844 C 143.011719 34.089844 142.867188 33.996094 142.808594 33.851562 C 142.4375 32.890625 141.859375 32.085938 141.082031 31.441406 C 141.050781 31.417969 141.015625 31.40625 140.980469 31.40625 C 140.898438 31.40625 140.828125 31.472656 140.828125 31.554688 C 140.828125 31.566406 140.832031 31.578125 140.832031 31.589844 L 141.058594 32.527344 C 141.0625 32.554688 141.0625 32.578125 141.0625 32.601562 C 141.0625 32.773438 140.921875 32.914062 140.75 32.914062 C 140.679688 32.914062 140.609375 32.890625 140.554688 32.84375 L 139.273438 31.765625 C 139.246094 31.742188 139.203125 31.730469 139.160156 31.730469 C 139.066406 31.730469 138.992188 31.808594 138.992188 31.902344 C 138.992188 31.914062 138.992188 31.925781 138.992188 31.933594 L 139.238281 33.226562 C 139.261719 33.355469 139.339844 33.445312 139.46875 33.488281 C 143 34.644531 146.394531 36.636719 149.644531 39.457031 C 150.507812 40.199219 151.097656 40.863281 151.410156 41.453125 C 151.46875 41.566406 151.558594 41.660156 151.664062 41.726562 C 152.746094 42.382812 153.808594 43.042969 154.871094 43.71875 C 156.203125 44.5625 157.125 45.75 158.269531 46.84375 C 158.296875 46.867188 158.308594 46.910156 158.308594 46.945312 C 158.308594 46.980469 158.296875 47.015625 158.273438 47.042969 L 158.179688 47.140625 C 158.144531 47.167969 158.128906 47.210938 158.132812 47.257812 C 158.179688 48.78125 158.371094 50.28125 158.695312 51.761719 C 159.09375 53.582031 158.90625 55.277344 159.144531 57.097656 C 159.144531 57.101562 159.148438 57.113281 159.148438 57.125 C 159.148438 57.257812 159.035156 57.363281 158.90625 57.363281 C 158.878906 57.363281 158.851562 57.363281 158.828125 57.351562 C 158.617188 57.28125 158.46875 57.066406 158.382812 56.726562 L 157.324219 53.125 C 157.277344 52.972656 157.1875 52.9375 157.046875 53.011719 L 156.917969 53.089844 C 156.875 53.113281 156.828125 53.125 156.777344 53.125 C 156.621094 53.125 156.5 53 156.5 52.847656 C 156.5 52.835938 156.5 52.824219 156.5 52.8125 C 156.710938 51.257812 156.238281 49.96875 155.082031 48.957031 C 154.941406 48.835938 154.804688 48.839844 154.667969 48.972656 L 154.574219 49.070312 C 154.574219 49.070312 154.566406 49.078125 154.566406 49.078125 C 154.472656 49.160156 154.332031 49.152344 154.25 49.066406 C 154.242188 49.058594 154.242188 49.058594 154.242188 49.058594 C 153.417969 48.097656 153.222656 47.238281 152.171875 46.328125 C 152.148438 46.304688 152.113281 46.289062 152.078125 46.277344 C 151.953125 46.246094 151.824219 46.324219 151.792969 46.445312 C 151.78125 46.484375 151.78125 46.519531 151.789062 46.554688 C 151.910156 47.121094 151.871094 47.683594 151.667969 48.238281 C 151.640625 48.332031 151.550781 48.398438 151.453125 48.398438 C 151.339844 48.398438 151.238281 48.316406 151.222656 48.203125 C 151.039062 47.285156 151.191406 46.222656 150.394531 45.523438 C 150.359375 45.496094 150.3125 45.476562 150.265625 45.476562 C 150.1875 45.476562 150.117188 45.519531 150.082031 45.589844 L 149.894531 45.980469 C 149.863281 46.046875 149.796875 46.085938 149.726562 46.085938 C 149.65625 46.085938 149.59375 46.050781 149.5625 45.992188 L 148.71875 44.480469 C 148.699219 44.449219 148.675781 44.425781 148.640625 44.414062 C 148.566406 44.378906 148.476562 44.414062 148.445312 44.492188 C 148.429688 44.519531 148.429688 44.554688 148.441406 44.589844 L 148.617188 45.277344 C 148.625 45.289062 148.625 45.304688 148.625 45.320312 C 148.625 45.425781 148.542969 45.507812 148.433594 45.507812 C 148.382812 45.507812 148.335938 45.488281 148.300781 45.449219 C 147.191406 44.242188 146.972656 43.457031 145.269531 42.847656 C 145.140625 42.800781 145.058594 42.710938 145.003906 42.582031 L 144.816406 42.066406 C 144.75 41.898438 144.644531 41.871094 144.511719 41.992188 L 144.234375 42.226562 C 144.203125 42.25 144.167969 42.261719 144.132812 42.261719 C 144.066406 42.261719 144.007812 42.226562 143.992188 42.164062 C 143.8125 41.691406 143.570312 41.277344 143.253906 40.910156 C 143.015625 40.644531 142.957031 40.679688 143.0625 41.015625 L 143.144531 41.277344 C 143.152344 41.300781 143.15625 41.328125 143.15625 41.359375 C 143.15625 41.53125 143.015625 41.667969 142.851562 41.667969 C 142.75 41.667969 142.664062 41.625 142.601562 41.546875 L 142.238281 41.046875 C 142.21875 41.023438 142.195312 41.011719 142.167969 41.011719 C 142.144531 41.011719 142.121094 41.015625 142.101562 41.035156 L 141.984375 41.144531 C 141.929688 41.199219 141.902344 41.277344 141.902344 41.351562 C 141.902344 41.453125 141.953125 41.546875 142.042969 41.601562 C 143.398438 42.453125 144.710938 43.402344 145.960938 44.457031 C 147.03125 45.359375 148.699219 46.132812 149.621094 47.261719 C 152.125 50.332031 152.933594 53.863281 152.042969 57.871094 C 152.011719 58 151.917969 58.101562 151.792969 58.148438 C 151.410156 58.289062 151.285156 58.15625 151.429688 57.742188 C 151.746094 56.800781 151.640625 55.949219 151.097656 55.195312 C 151.015625 55.070312 150.984375 54.933594 151.015625 54.785156 C 151.234375 53.667969 151.125 52.597656 150.683594 51.578125 C 150.671875 51.558594 150.660156 51.542969 150.644531 51.53125 C 150.589844 51.484375 150.5 51.484375 150.453125 51.542969 C 150.441406 51.554688 150.429688 51.578125 150.425781 51.59375 L 149.5625 54.714844 C 149.503906 54.933594 149.375 54.988281 149.179688 54.875 L 148.949219 54.738281 C 148.824219 54.660156 148.773438 54.515625 148.820312 54.378906 C 149.136719 53.457031 149.195312 52.511719 148.996094 51.542969 C 148.964844 51.382812 148.871094 51.335938 148.722656 51.398438 C 148.199219 51.636719 147.878906 52.671875 147.589844 52.695312 C 147.457031 52.707031 147.394531 52.648438 147.421875 52.511719 C 147.5625 51.429688 147.492188 50.371094 147.214844 49.332031 C 147.214844 49.3125 147.203125 49.296875 147.191406 49.277344 C 147.140625 49.214844 147.046875 49.203125 146.976562 49.25 C 146.960938 49.261719 146.949219 49.277344 146.9375 49.296875 C 146.625 49.855469 146.085938 52.085938 145.839844 52.304688 C 145.808594 52.328125 145.765625 52.34375 145.730469 52.34375 C 145.65625 52.34375 145.589844 52.292969 145.574219 52.214844 L 144.792969 48.550781 C 144.777344 48.457031 144.691406 48.386719 144.59375 48.386719 C 144.492188 48.386719 144.402344 48.457031 144.386719 48.558594 L 143.808594 52.003906 C 143.789062 52.078125 143.753906 52.148438 143.703125 52.210938 C 143.546875 52.367188 143.292969 52.375 143.140625 52.222656 C 143.082031 52.167969 143.046875 52.097656 143.027344 52.019531 C 142.703125 50.648438 142.945312 49.359375 142.226562 47.894531 C 142.109375 47.652344 142.019531 47.664062 141.960938 47.929688 L 141.503906 50.117188 C 141.476562 50.265625 141.351562 50.367188 141.203125 50.367188 C 141.09375 50.367188 140.992188 50.304688 140.9375 50.210938 C 140.839844 50.046875 140.808594 49.820312 140.851562 49.53125 C 141.015625 48.363281 140.707031 47.351562 139.933594 46.488281 C 139.792969 46.335938 139.71875 46.363281 139.707031 46.570312 L 139.515625 49.4375 C 139.503906 49.613281 139.355469 49.75 139.1875 49.75 C 139.042969 49.75 138.921875 49.664062 138.871094 49.53125 C 138.472656 48.445312 138.683594 47.261719 138.242188 46.269531 C 138.011719 45.761719 137.726562 45.277344 137.386719 44.816406 C 137.226562 44.597656 137.132812 44.628906 137.089844 44.886719 L 136.890625 46.328125 C 136.882812 46.394531 136.855469 46.460938 136.808594 46.511719 C 136.683594 46.660156 136.457031 46.671875 136.3125 46.546875 C 136.257812 46.5 136.222656 46.441406 136.203125 46.375 L 135.191406 42.671875 C 135.160156 42.582031 135.078125 42.523438 134.984375 42.523438 C 134.882812 42.523438 134.789062 42.601562 134.777344 42.699219 L 134.5625 44.542969 C 134.539062 44.722656 134.386719 44.859375 134.210938 44.859375 C 134.007812 44.859375 133.84375 44.691406 133.84375 44.492188 C 133.84375 44.492188 133.84375 44.484375 133.84375 44.484375 C 133.902344 43.203125 133.597656 42.027344 132.917969 40.949219 C 132.886719 40.902344 132.835938 40.867188 132.773438 40.867188 C 132.679688 40.867188 132.605469 40.9375 132.605469 41.035156 L 132.496094 42.6875 C 132.480469 42.84375 132.351562 42.953125 132.195312 42.953125 C 132.042969 42.953125 131.914062 42.835938 131.894531 42.675781 C 131.871094 41.617188 131.894531 40.058594 130.78125 39.515625 C 130.597656 39.433594 130.507812 39.484375 130.507812 39.6875 L 130.507812 40.371094 C 130.507812 40.371094 130.507812 40.378906 130.507812 40.378906 C 130.507812 40.566406 130.347656 40.726562 130.160156 40.726562 C 130.007812 40.726562 129.871094 40.625 129.828125 40.476562 L 129.304688 38.894531 C 129.296875 38.863281 129.269531 38.847656 129.238281 38.847656 C 129.210938 38.847656 129.1875 38.859375 129.175781 38.882812 L 129.117188 38.988281 C 129.058594 39.089844 129.042969 39.195312 129.085938 39.300781 C 129.199219 39.609375 129.226562 39.921875 129.175781 40.242188 C 129.164062 40.3125 129.132812 40.371094 129.085938 40.417969 C 128.957031 40.539062 128.753906 40.539062 128.636719 40.414062 C 128.589844 40.367188 128.5625 40.300781 128.550781 40.234375 C 128.476562 39.714844 128.242188 39.296875 127.835938 38.984375 C 127.824219 38.972656 127.804688 38.972656 127.789062 38.972656 C 127.742188 38.972656 127.699219 39.007812 127.699219 39.054688 C 127.699219 39.066406 127.703125 39.078125 127.703125 39.089844 C 127.957031 39.652344 127.886719 40.140625 127.503906 40.5625 C 127.457031 40.609375 127.390625 40.636719 127.320312 40.636719 C 127.210938 40.636719 127.113281 40.574219 127.078125 40.464844 L 126.832031 39.75 C 126.796875 39.652344 126.726562 39.617188 126.617188 39.644531 L 126.488281 39.691406 C 126.4375 39.710938 126.402344 39.734375 126.371094 39.761719 C 126.1875 39.945312 126.289062 40.335938 126.589844 40.636719 C 126.636719 40.683594 126.695312 40.730469 126.75 40.773438 C 128.902344 42.347656 130.726562 43.800781 132.570312 45.867188 C 133.972656 47.441406 135.46875 48.910156 136.546875 50.683594 C 138.453125 53.800781 139.574219 56.269531 140 59.839844 C 140.082031 60.558594 139.871094 61.269531 139.851562 62.03125 C 139.816406 63.800781 139.179688 65.5 138.53125 67.132812 C 138.5 67.214844 138.414062 67.273438 138.316406 67.273438 C 138.265625 67.273438 138.210938 67.257812 138.171875 67.226562 C 137.945312 67.039062 137.894531 66.785156 138.011719 66.457031 C 138.65625 64.714844 138.730469 62.875 138.246094 60.9375 C 138.234375 60.886719 138.207031 60.839844 138.164062 60.796875 C 138.046875 60.691406 137.863281 60.703125 137.75 60.820312 C 137.714844 60.863281 137.6875 60.914062 137.679688 60.972656 L 137.4375 62.882812 C 137.414062 63 137.316406 63.089844 137.191406 63.089844 C 137.074219 63.089844 136.972656 63.007812 136.949219 62.890625 L 136.445312 59.714844 C 136.433594 59.644531 136.375 59.597656 136.304688 59.597656 C 136.246094 59.597656 136.1875 59.636719 136.167969 59.699219 L 136.109375 59.902344 C 136.0625 60.085938 135.898438 60.222656 135.703125 60.222656 C 135.472656 60.222656 135.289062 60.035156 135.289062 59.804688 C 135.289062 59.769531 135.289062 59.734375 135.300781 59.703125 C 135.46875 58.882812 135.46875 58.054688 135.300781 57.234375 C 135.296875 57.203125 135.285156 57.1875 135.265625 57.160156 C 135.214844 57.109375 135.128906 57.109375 135.070312 57.160156 C 135.054688 57.179688 135.042969 57.199219 135.035156 57.222656 L 134.320312 59.683594 C 134.304688 59.75 134.261719 59.804688 134.210938 59.839844 C 134.078125 59.933594 133.898438 59.910156 133.800781 59.773438 C 133.761719 59.726562 133.742188 59.660156 133.75 59.597656 L 133.8125 56.246094 C 133.8125 56.238281 133.8125 56.238281 133.8125 56.238281 C 133.8125 56.222656 133.796875 56.203125 133.777344 56.203125 C 133.765625 56.203125 133.753906 56.210938 133.75 56.222656 L 133.164062 57.433594 C 133.117188 57.535156 133.011719 57.605469 132.894531 57.605469 C 132.734375 57.605469 132.605469 57.480469 132.59375 57.320312 L 132.425781 54.863281 C 132.425781 54.84375 132.414062 54.839844 132.398438 54.839844 C 132.386719 54.839844 132.375 54.84375 132.367188 54.855469 C 131.867188 56.222656 131.535156 57.609375 131.371094 59.023438 C 131.359375 59.171875 131.324219 59.25 131.277344 59.253906 C 131.269531 59.253906 131.265625 59.261719 131.253906 59.261719 C 131.085938 59.273438 130.933594 59.125 130.914062 58.929688 C 130.914062 58.921875 130.914062 58.917969 130.914062 58.90625 L 130.792969 54.566406 C 130.792969 54.507812 130.738281 54.46875 130.679688 54.46875 C 130.625 54.46875 130.578125 54.503906 130.566406 54.550781 C 130.066406 56.878906 129.328125 59.128906 128.367188 61.3125 C 128.359375 61.328125 128.347656 61.347656 128.332031 61.359375 C 128.277344 61.40625 128.195312 61.398438 128.140625 61.339844 C 128.128906 61.328125 128.117188 61.3125 128.113281 61.292969 C 127.976562 60.886719 127.957031 60.441406 128.054688 59.976562 C 128.464844 57.925781 128.832031 55.867188 129.164062 53.792969 C 129.179688 53.664062 129.128906 53.617188 129.003906 53.65625 C 128.867188 53.699219 128.75 53.6875 128.636719 53.621094 C 128.527344 53.558594 128.453125 53.414062 128.429688 53.214844 C 128.335938 52.457031 128.308594 51.695312 128.347656 50.921875 C 128.347656 50.910156 128.347656 50.890625 128.347656 50.878906 C 128.335938 50.75 128.210938 50.648438 128.078125 50.660156 C 128.066406 50.667969 128.054688 50.667969 128.042969 50.671875 L 127.679688 50.773438 C 127.492188 50.828125 127.386719 50.753906 127.363281 50.5625 L 127.214844 49.425781 C 127.210938 49.371094 127.167969 49.335938 127.113281 49.335938 C 127.078125 49.335938 127.042969 49.359375 127.03125 49.390625 L 126.789062 49.867188 C 126.714844 50.035156 126.601562 50.058594 126.460938 49.945312 L 126.058594 49.613281 C 126.015625 49.578125 125.980469 49.585938 125.957031 49.636719 L 125.035156 51.601562 C 125 51.671875 124.925781 51.71875 124.84375 51.71875 C 124.765625 51.71875 124.695312 51.675781 124.652344 51.613281 C 124.023438 50.484375 124.929688 45.980469 125.074219 44.503906 C 125.230469 42.867188 125.023438 42.820312 124.453125 44.359375 C 123.335938 47.332031 121.777344 50.707031 120.824219 53.570312 C 115.367188 69.9375 115.183594 88.566406 118.519531 105.316406 C 119.382812 109.613281 120.632812 113.828125 122.273438 117.96875 C 121.347656 117.378906 120.515625 116.664062 119.796875 115.804688 C 118.117188 113.792969 113.878906 112.253906 111.476562 111.078125 C 110.996094 110.84375 110.453125 110.847656 109.972656 111.101562 C 109.496094 100.296875 108.929688 88.722656 109.703125 78.738281 C 110.621094 66.9375 114.617188 54.253906 119.664062 43.253906 C 119.671875 43.242188 119.675781 43.226562 119.675781 43.214844 C 119.675781 43.148438 119.625 43.097656 119.558594 43.097656 C 119.523438 43.097656 119.496094 43.113281 119.46875 43.136719 L 118.140625 44.808594 C 118.101562 44.863281 118.03125 44.898438 117.960938 44.898438 C 117.917969 44.898438 117.875 44.886719 117.839844 44.863281 C 117.648438 44.746094 117.476562 44.792969 117.332031 45.003906 C 117.257812 45.125 117.152344 45.199219 117.019531 45.246094 C 115.527344 45.71875 114.726562 47.878906 113.863281 48.875 C 113.785156 48.972656 113.734375 49.082031 113.714844 49.203125 C 113.601562 50.28125 113.242188 51.277344 112.652344 52.167969 C 112.601562 52.25 112.503906 52.304688 112.40625 52.304688 C 112.238281 52.304688 112.109375 52.175781 112.109375 52.007812 C 112.109375 51.984375 112.109375 51.96875 112.117188 51.945312 C 113.078125 47.285156 114.292969 43.535156 118.449219 40.574219 C 118.636719 40.4375 118.613281 40.378906 118.382812 40.394531 C 115.992188 40.5625 113.355469 41.242188 111.71875 43.144531 C 110.59375 44.457031 109.84375 45.753906 109.464844 47.042969 C 108.875 49.070312 107.984375 50.9375 106.785156 52.640625 C 106.75 52.695312 106.691406 52.722656 106.625 52.722656 C 106.519531 52.722656 106.4375 52.636719 106.4375 52.527344 C 106.4375 52.515625 106.4375 52.5 106.4375 52.488281 L 107.164062 49.445312 C 107.164062 49.421875 107.164062 49.402344 107.15625 49.382812 C 107.132812 49.324219 107.074219 49.300781 107.023438 49.320312 C 107.003906 49.324219 106.988281 49.34375 106.976562 49.355469 L 106.632812 49.828125 C 106.578125 49.90625 106.492188 49.953125 106.394531 49.953125 C 106.242188 49.953125 106.113281 49.828125 106.113281 49.667969 C 106.113281 49.644531 106.117188 49.621094 106.125 49.597656 L 106.378906 48.5625 C 106.378906 48.558594 106.378906 48.550781 106.378906 48.546875 C 106.378906 48.496094 106.34375 48.457031 106.289062 48.457031 C 106.261719 48.457031 106.230469 48.472656 106.214844 48.503906 L 105.851562 49.214844 C 105.800781 49.320312 105.710938 49.359375 105.59375 49.335938 L 105.222656 49.261719 C 105.117188 49.242188 105.03125 49.273438 104.96875 49.367188 C 103.386719 51.554688 102.589844 53.480469 101.515625 55.902344 C 101.425781 56.105469 101.226562 56.234375 101.011719 56.234375 C 100.9375 56.234375 100.867188 56.214844 100.800781 56.1875 C 100.71875 56.15625 100.707031 56.046875 100.753906 55.851562 C 101.203125 53.96875 101.664062 52.0625 102.117188 50.113281 C 102.121094 50.113281 102.121094 50.105469 102.121094 50.105469 C 102.121094 50.0625 102.085938 50.027344 102.046875 50.027344 C 102.023438 50.027344 102 50.039062 101.988281 50.058594 C 101.3125 51.144531 100.617188 52.238281 99.910156 53.339844 C 99.730469 53.609375 99.53125 53.703125 99.308594 53.609375 C 99.1875 53.558594 99.140625 53.46875 99.152344 53.339844 L 99.1875 53.109375 C 99.21875 52.847656 99.164062 52.828125 99.023438 53.046875 L 97.046875 56.121094 C 97.003906 56.1875 96.929688 56.226562 96.851562 56.226562 C 96.722656 56.226562 96.617188 56.128906 96.617188 55.996094 C 96.605469 55.355469 97.511719 53.65625 97.714844 52.871094 C 97.71875 52.847656 97.714844 52.828125 97.707031 52.8125 C 97.691406 52.769531 97.640625 52.753906 97.601562 52.769531 C 97.582031 52.777344 97.570312 52.792969 97.558594 52.8125 L 95.421875 56.878906 C 95.382812 56.96875 95.292969 57.019531 95.199219 57.019531 C 95.058594 57.019531 94.945312 56.90625 94.9375 56.773438 L 94.925781 56.441406 C 94.914062 56.300781 94.875 56.292969 94.804688 56.410156 L 94.164062 57.433594 C 94.09375 57.550781 94.082031 57.695312 94.125 57.816406 C 94.207031 58.058594 94.128906 58.21875 93.894531 58.296875 C 93.722656 58.351562 93.609375 58.457031 93.558594 58.628906 L 92.0625 63.132812 C 92.050781 63.15625 92.035156 63.179688 92.011719 63.191406 C 91.945312 63.21875 91.859375 63.160156 91.8125 63.066406 C 91.796875 63.03125 91.785156 62.988281 91.785156 62.953125 C 91.886719 57.847656 93.976562 54.199219 96.769531 49.785156 C 98.792969 46.570312 101.3125 44.503906 104.488281 42.675781 C 105.6875 41.984375 106.164062 41.027344 106.625 39.828125 C 106.671875 39.703125 106.746094 39.597656 106.839844 39.515625 C 107 39.378906 107.105469 39.214844 107.164062 39.019531 C 107.242188 38.789062 107.191406 38.757812 107.023438 38.929688 C 106.324219 39.652344 105.59375 40.625 104.824219 41.867188 C 104.648438 42.167969 104.402344 42.234375 104.09375 42.066406 C 104.035156 42.03125 103.992188 41.96875 103.992188 41.898438 C 103.992188 41.859375 104.003906 41.824219 104.023438 41.796875 L 104.417969 41.179688 C 104.429688 41.164062 104.441406 41.140625 104.441406 41.117188 C 104.441406 41.0625 104.394531 41.023438 104.34375 41.023438 C 104.3125 41.023438 104.28125 41.035156 104.265625 41.058594 C 103.699219 41.601562 103.21875 42.203125 102.820312 42.867188 C 102.488281 43.414062 102.085938 43.4375 101.613281 42.9375 C 101.503906 42.820312 101.410156 42.683594 101.332031 42.535156 C 101.265625 42.421875 101.183594 42.40625 101.082031 42.5 C 100.09375 43.402344 99.273438 44.445312 98.621094 45.613281 C 98.414062 45.992188 98.039062 46.191406 97.636719 46.058594 C 97.507812 46.003906 97.441406 45.863281 97.488281 45.730469 C 97.488281 45.730469 97.488281 45.730469 97.488281 45.726562 C 99.183594 41.832031 103.761719 37.640625 108.03125 36.589844 C 111.644531 35.703125 115.078125 35.878906 119.683594 36.808594 C 119.695312 36.8125 119.699219 36.8125 119.710938 36.8125 C 119.8125 36.8125 119.894531 36.730469 119.894531 36.628906 C 119.894531 36.59375 119.882812 36.554688 119.859375 36.523438 L 119.648438 36.234375 C 119.566406 36.117188 119.453125 36.074219 119.316406 36.105469 C 118.6875 36.222656 118.371094 35.980469 118.378906 35.378906 C 118.378906 35.171875 118.289062 35.125 118.113281 35.246094 L 117.421875 35.726562 C 117.316406 35.804688 117.164062 35.78125 117.078125 35.671875 C 116.832031 35.335938 116.742188 34.957031 116.820312 34.539062 C 116.832031 34.449219 116.800781 34.398438 116.71875 34.375 C 116.671875 34.363281 116.632812 34.34375 116.585938 34.332031 C 116.53125 34.308594 116.496094 34.324219 116.472656 34.375 C 116.246094 34.816406 115.917969 35.136719 115.480469 35.335938 C 115.320312 35.40625 115.226562 35.359375 115.191406 35.1875 C 115.054688 34.539062 115.5 33.074219 115.421875 32.871094 C 115.363281 32.699219 115.292969 32.695312 115.214844 32.859375 C 114.992188 33.355469 114.613281 33.667969 114.085938 33.8125 C 113.964844 33.847656 113.867188 33.925781 113.808594 34.023438 C 113.738281 34.136719 113.644531 34.214844 113.527344 34.242188 C 113.277344 34.3125 113.191406 34.226562 113.253906 33.976562 L 113.34375 33.632812 C 113.347656 33.609375 113.347656 33.59375 113.34375 33.574219 C 113.324219 33.523438 113.265625 33.492188 113.214844 33.511719 C 113.195312 33.515625 113.179688 33.527344 113.167969 33.546875 L 111.960938 35.117188 C 111.910156 35.1875 111.828125 35.230469 111.738281 35.230469 C 111.585938 35.230469 111.453125 35.105469 111.453125 34.953125 C 111.453125 34.941406 111.453125 34.933594 111.460938 34.929688 C 111.507812 34.042969 111.726562 33.203125 112.109375 32.410156 C 112.128906 32.386719 112.132812 32.363281 112.132812 32.339844 C 112.132812 32.25 112.0625 32.1875 111.980469 32.1875 C 111.933594 32.1875 111.890625 32.203125 111.863281 32.234375 C 110.941406 33.132812 110.179688 34.148438 109.578125 35.285156 C 109.507812 35.414062 109.359375 35.484375 109.21875 35.464844 C 108.839844 35.417969 108.773438 35.207031 109.015625 34.835938 C 109.085938 34.722656 109.117188 34.609375 109.101562 34.503906 C 109.082031 34.378906 109.035156 34.363281 108.953125 34.457031 L 107.683594 35.9375 C 107.605469 36.035156 107.492188 36.082031 107.375 36.082031 C 107.15625 36.082031 106.988281 35.910156 106.988281 35.691406 C 106.988281 35.636719 106.992188 35.585938 107.015625 35.53125 L 108.375 32.191406 C 108.378906 32.175781 108.375 32.15625 108.363281 32.144531 C 108.332031 32.121094 108.308594 32.097656 108.289062 32.066406 C 108.265625 32.042969 108.25 32.042969 108.230469 32.074219 L 105.039062 36.414062 C 104.984375 36.484375 104.898438 36.53125 104.808594 36.53125 C 104.648438 36.53125 104.519531 36.398438 104.519531 36.242188 C 104.519531 36.210938 104.523438 36.175781 104.535156 36.144531 L 105.269531 34.042969 C 105.296875 33.960938 105.28125 33.949219 105.210938 34 C 104.113281 34.894531 103.273438 35.976562 102.6875 37.25 C 102.617188 37.40625 102.511719 37.433594 102.371094 37.347656 C 101.898438 37.042969 101.449219 37.105469 101.011719 37.523438 C 100.789062 37.734375 100.695312 37.6875 100.722656 37.386719 L 100.792969 36.660156 C 100.792969 36.648438 100.792969 36.636719 100.789062 36.628906 C 100.769531 36.605469 100.742188 36.59375 100.71875 36.605469 C 100.710938 36.613281 100.707031 36.625 100.699219 36.636719 L 98.988281 40.65625 C 98.96875 40.703125 98.941406 40.738281 98.898438 40.761719 C 98.457031 41.011719 98.292969 40.945312 98.410156 40.5625 C 98.839844 39.171875 99.164062 37.695312 99.382812 36.128906 C 99.390625 36.097656 99.382812 36.070312 99.367188 36.046875 C 99.335938 35.988281 99.253906 35.964844 99.1875 36 C 99.164062 36.011719 99.140625 36.035156 99.128906 36.058594 L 97.359375 40.257812 C 97.335938 40.324219 97.257812 40.359375 97.1875 40.335938 C 96.875 40.21875 96.78125 40.035156 96.910156 39.785156 C 97.195312 39.21875 97.246094 38.6875 97.082031 38.179688 C 97.015625 37.988281 96.953125 37.988281 96.886719 38.171875 C 96.515625 39.191406 95.796875 42.441406 94.796875 42.792969 C 94.78125 42.800781 94.757812 42.808594 94.734375 42.808594 C 94.621094 42.808594 94.527344 42.710938 94.527344 42.601562 C 94.527344 42.550781 94.539062 42.511719 94.5625 42.476562 C 94.972656 41.921875 95.097656 41.3125 94.949219 40.644531 C 94.898438 40.429688 94.820312 40.417969 94.71875 40.621094 C 94.417969 41.199219 94.261719 42.164062 93.675781 42.515625 C 93.621094 42.546875 93.558594 42.5625 93.492188 42.5625 C 93.304688 42.5625 93.144531 42.410156 93.144531 42.214844 C 93.144531 42.175781 93.152344 42.140625 93.164062 42.101562 L 93.523438 41.039062 C 93.523438 41.027344 93.527344 41.015625 93.527344 41.003906 C 93.527344 40.925781 93.464844 40.863281 93.386719 40.863281 C 93.332031 40.863281 93.285156 40.890625 93.261719 40.933594 L 91.96875 43.523438 C 91.90625 43.640625 91.8125 43.6875 91.679688 43.644531 C 91.460938 43.574219 91.398438 43.433594 91.484375 43.21875 C 92.636719 40.554688 94.21875 37.894531 96.238281 35.234375 C 96.59375 34.769531 97.039062 34.402344 97.59375 34.136719 C 99.738281 33.101562 101.851562 31.996094 103.929688 30.820312 C 104.773438 30.34375 105.683594 30.054688 106.65625 29.945312 C 111.324219 29.457031 115.558594 30.65625 119.351562 33.546875 C 119.371094 33.558594 119.394531 33.570312 119.421875 33.570312 C 119.488281 33.574219 119.542969 33.523438 119.546875 33.457031 C 119.546875 33.433594 119.542969 33.402344 119.53125 33.386719 L 118.566406 31.886719 C 118.527344 31.824219 118.46875 31.789062 118.390625 31.777344 C 118.355469 31.773438 118.320312 31.773438 118.285156 31.773438 C 118.167969 31.773438 118.089844 31.714844 118.054688 31.601562 C 117.960938 31.289062 117.746094 31.144531 117.410156 31.175781 C 117.257812 31.195312 117.1875 31.121094 117.199219 30.96875 L 117.226562 30.609375 C 117.234375 30.464844 117.167969 30.394531 117.027344 30.390625 L 115.472656 30.320312 C 115.34375 30.3125 115.246094 30.207031 115.246094 30.082031 C 115.246094 30.03125 115.261719 29.988281 115.285156 29.945312 L 115.875 29.042969 C 115.894531 29.011719 115.90625 28.984375 115.90625 28.953125 C 115.90625 28.863281 115.835938 28.792969 115.746094 28.792969 C 115.734375 28.792969 115.722656 28.800781 115.710938 28.800781 C 114.847656 29.011719 114.347656 28.6875 114.199219 27.820312 C 114.152344 27.519531 113.894531 27.300781 113.589844 27.300781 C 113.449219 27.300781 113.3125 27.347656 113.203125 27.433594 C 112.789062 27.773438 112.328125 27.972656 111.816406 28.050781 C 111.804688 28.050781 111.792969 28.050781 111.78125 28.050781 C 111.644531 28.050781 111.53125 27.9375 111.53125 27.808594 C 111.53125 27.785156 111.539062 27.765625 111.542969 27.75 L 111.796875 26.703125 C 111.808594 26.648438 111.816406 26.621094 111.808594 26.621094 C 111.78125 26.589844 111.753906 26.566406 111.730469 26.542969 C 111.695312 26.507812 111.667969 26.507812 111.636719 26.542969 L 110.515625 27.789062 C 110.457031 27.855469 110.367188 27.894531 110.28125 27.894531 C 110.109375 27.894531 109.96875 27.753906 109.96875 27.578125 C 109.96875 27.570312 109.96875 27.558594 109.96875 27.554688 L 110.144531 25.417969 C 110.148438 25.308594 110.101562 25.265625 109.996094 25.300781 C 109.230469 25.554688 108.917969 26.546875 108.097656 26.914062 C 108.074219 26.925781 108.042969 26.933594 108.011719 26.933594 C 107.90625 26.933594 107.824219 26.84375 107.824219 26.738281 C 107.824219 26.730469 107.824219 26.730469 107.824219 26.726562 C 107.867188 26.058594 108.074219 25.441406 108.445312 24.875 C 108.46875 24.839844 108.457031 24.8125 108.410156 24.792969 C 108.378906 24.78125 108.34375 24.769531 108.308594 24.757812 C 108.289062 24.75 108.273438 24.761719 108.253906 24.789062 L 106.460938 26.71875 C 106.378906 26.808594 106.261719 26.863281 106.136719 26.863281 C 105.894531 26.863281 105.695312 26.660156 105.695312 26.417969 C 105.695312 26.359375 105.707031 26.300781 105.730469 26.246094 L 106.3125 24.816406 C 106.394531 24.609375 106.347656 24.574219 106.171875 24.703125 C 105.476562 25.230469 104.890625 25.855469 104.417969 26.589844 C 104.382812 26.648438 104.332031 26.691406 104.269531 26.726562 C 104.078125 26.824219 103.835938 26.753906 103.726562 26.558594 C 103.699219 26.5 103.679688 26.4375 103.6875 26.363281 C 103.6875 25.832031 104.253906 24.96875 104.476562 24.460938 C 104.542969 24.320312 104.511719 24.296875 104.390625 24.386719 C 103.246094 25.1875 102.28125 26.171875 101.515625 27.335938 C 101.460938 27.417969 101.371094 27.464844 101.277344 27.464844 C 101.125 27.464844 101 27.339844 101 27.1875 C 101 27.15625 101.007812 27.128906 101.011719 27.097656 C 101.285156 26.1875 101.710938 25.289062 102.289062 24.414062 C 102.316406 24.367188 102.328125 24.332031 102.328125 24.289062 C 102.324219 24.253906 102.3125 24.226562 102.289062 24.195312 C 102.28125 24.191406 102.277344 24.191406 102.269531 24.191406 C 102.257812 24.191406 102.253906 24.191406 102.246094 24.195312 C 101.585938 24.917969 100.816406 26.246094 100.007812 26.714844 C 99.960938 26.742188 99.910156 26.753906 99.855469 26.753906 C 99.683594 26.753906 99.542969 26.621094 99.542969 26.449219 C 99.542969 26.394531 99.5625 26.339844 99.585938 26.300781 C 99.773438 25.945312 99.898438 25.625 99.96875 25.347656 C 100.0625 24.992188 100.019531 24.976562 99.851562 25.300781 C 99.554688 25.855469 99.105469 26.210938 98.511719 26.378906 C 98.328125 26.429688 98.269531 26.363281 98.332031 26.195312 C 98.457031 25.816406 98.621094 25.492188 98.816406 25.207031 C 98.863281 25.136719 98.882812 25.070312 98.875 25.007812 C 98.863281 24.871094 98.8125 24.859375 98.714844 24.953125 C 97.507812 26.265625 96.445312 27.683594 95.515625 29.207031 C 95.464844 29.308594 95.351562 29.367188 95.238281 29.367188 C 95.058594 29.367188 94.910156 29.21875 94.910156 29.042969 C 94.910156 29.011719 94.914062 28.988281 94.921875 28.964844 C 95.132812 28.089844 95.515625 27.234375 96.078125 26.390625 C 96.109375 26.339844 96.121094 26.300781 96.121094 26.265625 C 96.113281 26.222656 96.097656 26.183594 96.066406 26.152344 C 96.023438 26.121094 95.996094 26.121094 95.972656 26.160156 L 94.214844 28.59375 C 94.171875 28.660156 94.09375 28.699219 94.019531 28.71875 C 93.835938 28.746094 93.730469 28.675781 93.6875 28.503906 C 93.640625 28.292969 93.539062 28.269531 93.398438 28.429688 C 92.835938 29.023438 92.207031 29.785156 91.964844 30.566406 C 91.886719 30.816406 91.757812 31 91.582031 31.117188 C 91.53125 31.144531 91.472656 31.164062 91.421875 31.164062 C 91.253906 31.164062 91.125 31.035156 91.125 30.875 C 91.125 30.832031 91.132812 30.796875 91.148438 30.761719 L 92.304688 27.984375 C 92.394531 27.765625 92.355469 27.734375 92.175781 27.894531 L 91.484375 28.5 C 91.445312 28.539062 91.386719 28.5625 91.328125 28.5625 C 91.183594 28.5625 91.074219 28.445312 91.074219 28.308594 C 91.074219 28.25 91.089844 28.199219 91.125 28.15625 C 91.941406 27.140625 92.835938 26.148438 93.804688 25.171875 C 96.167969 22.808594 102.058594 21.71875 104.972656 21.671875 C 105.480469 21.660156 106.601562 21.839844 108.339844 22.203125 C 111.449219 23.210938 114.265625 24.761719 116.800781 26.855469 C 116.84375 26.890625 116.890625 26.910156 116.945312 26.910156 C 117.0625 26.910156 117.15625 26.8125 117.15625 26.695312 C 117.15625 26.667969 117.152344 26.636719 117.140625 26.609375 C 116.773438 25.679688 116.222656 24.882812 115.480469 24.21875 C 115.355469 24.113281 115.195312 24.054688 115.039062 24.054688 C 114.570312 24.058594 114.183594 23.902344 113.878906 23.570312 C 113.808594 23.492188 113.703125 23.445312 113.597656 23.445312 C 113.550781 23.445312 113.507812 23.453125 113.460938 23.46875 L 112.976562 23.640625 C 112.949219 23.652344 112.925781 23.660156 112.894531 23.660156 C 112.765625 23.660156 112.664062 23.550781 112.664062 23.421875 C 112.664062 23.417969 112.664062 23.417969 112.664062 23.410156 C 112.671875 23.34375 112.664062 23.285156 112.660156 23.238281 C 112.636719 23.113281 112.566406 23.039062 112.441406 23.007812 L 110.089844 22.453125 C 109.980469 22.421875 109.878906 22.371094 109.796875 22.289062 C 109.476562 21.96875 109.015625 21.890625 108.414062 22.058594 L 106.296875 21.324219 C 106.183594 21.28125 106.105469 21.175781 106.105469 21.058594 C 106.105469 20.929688 106.195312 20.816406 106.320312 20.785156 L 106.851562 20.644531 C 106.914062 20.625 106.960938 20.574219 106.960938 20.503906 C 106.960938 20.429688 106.902344 20.371094 106.832031 20.359375 L 105.503906 20.152344 C 105.34375 20.128906 105.191406 20.160156 105.054688 20.230469 L 103.121094 21.207031 C 103.097656 21.21875 103.066406 21.222656 103.039062 21.222656 C 102.9375 21.222656 102.855469 21.140625 102.855469 21.035156 C 102.855469 21.011719 102.859375 20.980469 102.871094 20.953125 L 103.195312 20.308594 C 103.21875 20.273438 103.207031 20.253906 103.167969 20.253906 C 101.332031 20.324219 100.894531 21.347656 99.527344 21.839844 C 99.507812 21.84375 99.488281 21.851562 99.472656 21.851562 C 99.378906 21.851562 99.300781 21.773438 99.300781 21.679688 C 99.300781 21.644531 99.3125 21.601562 99.335938 21.570312 L 99.832031 20.957031 C 99.914062 20.855469 99.890625 20.792969 99.761719 20.761719 L 99.449219 20.703125 C 99.152344 20.644531 99.128906 20.527344 99.367188 20.347656 C 104.890625 16.195312 112.261719 20.113281 117.191406 23.113281 L 118.785156 23.996094 C 118.921875 24.070312 118.988281 24.03125 118.976562 23.878906 L 118.84375 21.609375 C 118.832031 21.402344 118.769531 21.378906 118.636719 21.542969 L 117.605469 22.90625 C 117.492188 22.890625 117.398438 22.847656 117.320312 22.785156 C 117.257812 22.726562 117.210938 22.640625 117.1875 22.523438 C 117.003906 21.738281 116.949219 20.878906 117.019531 19.957031 C 117.019531 19.953125 117.019531 19.945312 117.019531 19.941406 C 117.019531 19.90625 116.992188 19.875 116.960938 19.875 C 116.933594 19.875 116.902344 19.894531 116.898438 19.921875 L 116.269531 21.4375 C 116.234375 21.519531 116.152344 21.578125 116.058594 21.578125 C 115.929688 21.578125 115.824219 21.472656 115.824219 21.339844 C 115.824219 21.335938 115.824219 21.328125 115.828125 21.324219 L 116.113281 18.054688 C 116.113281 18.054688 116.113281 18.050781 116.113281 18.042969 C 116.113281 17.960938 116.046875 17.894531 115.96875 17.894531 C 115.910156 17.894531 115.863281 17.933594 115.839844 17.980469 L 115.019531 19.621094 C 114.972656 19.722656 114.867188 19.789062 114.761719 19.789062 C 114.601562 19.789062 114.476562 19.664062 114.472656 19.503906 C 114.398438 18.019531 114.941406 17.023438 115.316406 15.597656 C 115.363281 15.433594 115.328125 15.414062 115.222656 15.542969 C 114.703125 16.152344 114.269531 16.828125 113.933594 17.566406 C 113.878906 17.675781 113.761719 17.75 113.640625 17.75 C 113.457031 17.75 113.300781 17.601562 113.300781 17.417969 C 113.300781 17.40625 113.308594 17.394531 113.308594 17.382812 C 113.492188 15.929688 113.980469 14.582031 114.773438 13.339844 C 114.796875 13.308594 114.808594 13.28125 114.808594 13.25 C 114.808594 13.175781 114.742188 13.113281 114.671875 13.113281 C 114.628906 13.113281 114.59375 13.132812 114.566406 13.164062 C 113.4375 14.183594 112.527344 15.402344 111.839844 16.816406 C 111.742188 17.015625 111.625 17.140625 111.484375 17.1875 C 111.453125 17.191406 111.429688 17.199219 111.402344 17.199219 C 111.261719 17.199219 111.140625 17.082031 111.140625 16.933594 C 111.140625 16.902344 111.140625 16.875 111.152344 16.84375 L 112.625 12.695312 C 112.695312 12.496094 112.636719 12.441406 112.453125 12.542969 C 111.472656 13.074219 110.722656 13.832031 110.210938 14.816406 C 110.132812 14.957031 109.972656 15.035156 109.8125 15.011719 C 109.65625 14.988281 109.601562 14.921875 109.65625 14.824219 C 110.320312 13.492188 110.964844 12.203125 111.589844 10.964844 C 111.683594 10.773438 111.632812 10.703125 111.429688 10.757812 C 109.777344 11.164062 108.265625 11.902344 106.898438 12.960938 C 106.574219 13.210938 106.277344 13.363281 106.011719 13.421875 C 105.988281 13.429688 105.964844 13.429688 105.941406 13.429688 C 105.777344 13.429688 105.640625 13.292969 105.640625 13.125 C 105.640625 13.03125 105.683594 12.945312 105.753906 12.882812 L 107.636719 11.3125 C 107.777344 11.195312 107.773438 11.074219 107.625 10.964844 C 107.566406 10.910156 107.535156 10.839844 107.535156 10.746094 C 107.535156 10.632812 107.570312 10.53125 107.648438 10.449219 L 108.796875 9.226562 C 108.828125 9.203125 108.839844 9.167969 108.839844 9.132812 C 108.839844 9.0625 108.78125 8.996094 108.703125 8.996094 L 102.046875 8.90625 C 101.933594 8.90625 101.839844 8.820312 101.839844 8.707031 C 101.839844 8.625 101.886719 8.550781 101.957031 8.515625 C 103.167969 7.898438 104.453125 7.625 105.8125 7.707031 C 106.007812 7.714844 106.089844 7.625 106.058594 7.4375 C 106.007812 7.027344 106.164062 6.855469 106.542969 6.921875 C 109.070312 7.347656 111.4375 8.296875 113.652344 9.78125 C 115.292969 10.816406 116.695312 12.109375 117.875 13.664062 C 117.972656 13.792969 118.035156 13.777344 118.066406 13.617188 L 118.191406 12.96875 C 118.214844 12.832031 118.160156 12.753906 118.023438 12.738281 L 117.925781 12.726562 C 117.8125 12.707031 117.722656 12.652344 117.664062 12.554688 L 116.171875 9.886719 C 116.105469 9.769531 115.980469 9.691406 115.847656 9.691406 L 113.832031 9.632812 C 113.820312 9.390625 113.894531 9.179688 114.039062 8.988281 C 114.160156 8.855469 114.121094 8.765625 113.945312 8.730469 L 111.933594 8.328125 C 111.808594 8.304688 111.714844 8.234375 111.648438 8.121094 L 111.597656 8.039062 C 111.589844 8.027344 111.585938 8.019531 111.585938 8.007812 C 111.5625 7.945312 111.601562 7.867188 111.667969 7.847656 C 111.679688 7.84375 111.683594 7.84375 111.695312 7.84375 C 112.480469 7.796875 113.355469 7.9375 114.316406 8.273438 C 116.222656 9.019531 118.128906 9.917969 120.042969 10.964844 C 121.304688 11.660156 122.152344 13.257812 123.066406 14.367188 C 124.699219 16.359375 124.605469 18.699219 125.640625 20.910156 C 125.652344 20.929688 125.667969 20.945312 125.6875 20.953125 C 125.726562 20.96875 125.78125 20.945312 125.796875 20.898438 C 125.808594 20.878906 125.808594 20.855469 125.804688 20.839844 C 125.402344 19.757812 125.421875 18.683594 125.851562 17.613281 C 125.910156 17.46875 125.90625 17.335938 125.832031 17.199219 C 125.589844 16.726562 125.21875 16.3125 124.722656 15.953125 C 124.480469 15.78125 124.445312 15.578125 124.617188 15.335938 C 124.6875 15.242188 124.675781 15.105469 124.589844 15.03125 L 123.785156 14.351562 C 123.730469 14.304688 123.695312 14.25 123.671875 14.183594 C 123.613281 14 123.71875 13.800781 123.910156 13.734375 C 123.96875 13.71875 124.035156 13.710938 124.097656 13.730469 C 125.074219 13.953125 125.734375 14.527344 126.082031 15.449219 C 126.128906 15.574219 126.21875 15.679688 126.339844 15.738281 C 126.761719 15.945312 126.933594 16.289062 126.847656 16.761719 C 126.832031 16.878906 126.855469 17.003906 126.914062 17.109375 C 127.550781 18.15625 127.894531 19.277344 127.945312 20.480469 C 127.96875 21.003906 127.703125 21.738281 127.753906 22.386719 C 127.769531 22.640625 127.847656 22.660156 127.980469 22.441406 L 129.296875 20.332031 C 129.359375 20.230469 129.351562 20.136719 129.28125 20.054688 C 128.703125 19.386719 129.382812 18.59375 129.828125 18.085938 C 129.929688 17.972656 129.90625 17.894531 129.757812 17.855469 C 129.46875 17.773438 129.394531 17.613281 129.523438 17.371094 C 129.984375 16.535156 130.507812 15.746094 131.105469 15.007812 C 131.152344 14.953125 131.175781 14.898438 131.179688 14.839844 C 131.1875 14.726562 131.152344 14.714844 131.074219 14.792969 C 130.625 15.242188 130.132812 15.613281 129.574219 15.921875 C 129.40625 16.015625 129.308594 16.046875 129.28125 16.011719 C 129.109375 15.832031 129.132812 15.496094 129.328125 15.191406 L 131.335938 11.769531 C 131.347656 11.742188 131.359375 11.71875 131.359375 11.695312 C 131.359375 11.621094 131.292969 11.5625 131.21875 11.5625 C 131.195312 11.5625 131.164062 11.566406 131.144531 11.578125 L 128.925781 13.042969 C 128.878906 13.078125 128.816406 13.097656 128.753906 13.097656 C 128.578125 13.097656 128.441406 12.957031 128.441406 12.785156 C 128.441406 12.726562 128.453125 12.664062 128.488281 12.613281 L 130.53125 9.308594 C 130.601562 9.191406 130.578125 9.160156 130.449219 9.226562 L 129.328125 9.777344 C 129.285156 9.800781 129.238281 9.8125 129.191406 9.8125 C 129.019531 9.8125 128.878906 9.667969 128.878906 9.5 C 128.878906 9.449219 128.890625 9.402344 128.910156 9.363281 L 129.9375 7.1875 C 129.953125 7.15625 129.960938 7.128906 129.960938 7.09375 C 129.960938 6.976562 129.867188 6.878906 129.746094 6.878906 C 129.722656 6.878906 129.707031 6.886719 129.683594 6.890625 L 128.34375 7.3125 C 128.289062 7.328125 128.230469 7.335938 128.175781 7.324219 C 128.011719 7.28125 127.90625 7.117188 127.941406 6.949219 C 127.953125 6.898438 127.980469 6.84375 128.023438 6.804688 C 128.949219 5.835938 129.710938 4.746094 130.300781 3.535156 C 130.359375 3.410156 130.324219 3.320312 130.183594 3.285156 C 129.316406 3.0625 128.40625 4.054688 127.65625 4.355469 C 127.628906 4.363281 127.597656 4.367188 127.574219 4.367188 C 127.449219 4.367188 127.355469 4.273438 127.355469 4.15625 C 127.355469 4.121094 127.363281 4.089844 127.375 4.0625 L 128.011719 2.65625 C 128.019531 2.636719 128.019531 2.625 128.019531 2.605469 C 128.019531 2.554688 127.976562 2.507812 127.917969 2.507812 C 127.898438 2.507812 127.882812 2.511719 127.871094 2.519531 L 126.882812 3.039062 C 126.835938 3.0625 126.789062 3.074219 126.738281 3.074219 C 126.558594 3.074219 126.417969 2.933594 126.417969 2.761719 C 126.417969 2.75 126.417969 2.738281 126.425781 2.726562 L 126.589844 1.082031 C 126.605469 0.886719 126.464844 0.722656 126.277344 0.703125 C 126.277344 0.703125 126.269531 0.703125 126.269531 0.703125 L 125.550781 0.65625 C 125.46875 0.65625 125.390625 0.621094 125.34375 0.554688 C 125.25 0.433594 125.296875 0.238281 125.445312 0.125 C 125.519531 0.0703125 125.605469 0.0429688 125.6875 0.046875 C 128.371094 0.148438 130.390625 1.273438 131.742188 3.417969 C 131.765625 3.457031 132.089844 3.925781 132.710938 4.828125 C 133.566406 6.070312 133.53125 7.984375 133.777344 9.363281 C 134.515625 13.339844 133.449219 17.246094 131.300781 20.621094 C 131.28125 20.648438 131.265625 20.6875 131.265625 20.722656 C 131.265625 20.808594 131.335938 20.878906 131.421875 20.878906 C 131.472656 20.878906 131.519531 20.863281 131.546875 20.820312 L 132.113281 20.273438 C 132.214844 20.171875 132.339844 20.128906 132.480469 20.136719 L 132.703125 20.140625 C 132.953125 20.148438 133.003906 20.261719 132.871094 20.46875 L 130.78125 23.574219 C 130.757812 23.609375 130.746094 23.652344 130.746094 23.695312 C 130.746094 23.800781 130.828125 23.890625 130.933594 23.890625 C 130.988281 23.890625 131.039062 23.867188 131.074219 23.828125 C 131.519531 23.429688 131.964844 23.015625 132.425781 22.570312 C 133.558594 21.488281 134.984375 20.769531 136.226562 19.78125 C 137.957031 18.410156 141.894531 16.070312 144.113281 16.148438 C 145.042969 16.175781 146.695312 15.761719 147.214844 16.785156 C 147.21875 16.796875 147.21875 16.808594 147.226562 16.820312 C 147.238281 16.886719 147.191406 16.949219 147.125 16.960938 C 147.113281 16.960938 147.101562 16.960938 147.089844 16.960938 L 144.367188 16.609375 C 144.285156 16.589844 144.25 16.625 144.28125 16.714844 C 144.296875 16.753906 144.308594 16.804688 144.328125 16.851562 C 144.339844 16.878906 144.363281 16.898438 144.390625 16.902344 C 146.363281 17.140625 148.234375 17.6875 150.011719 18.546875 C 150.125 18.597656 150.195312 18.710938 150.195312 18.835938 C 150.195312 19.011719 150.046875 19.15625 149.875 19.15625 C 149.871094 19.15625 149.871094 19.15625 149.871094 19.15625 C 149.78125 19.15625 149.679688 19.132812 149.570312 19.085938 C 147.710938 18.332031 145.820312 18.050781 143.914062 18.234375 C 143.871094 18.234375 143.84375 18.25 143.824219 18.273438 C 143.8125 18.296875 143.820312 18.308594 143.84375 18.316406 L 145.554688 18.78125 C 145.671875 18.8125 145.753906 18.917969 145.753906 19.042969 C 145.753906 19.191406 145.636719 19.308594 145.488281 19.308594 C 145.472656 19.308594 145.460938 19.308594 145.441406 19.304688 C 143.914062 19.058594 142.445312 19.285156 141.035156 19.976562 C 140.832031 20.070312 140.84375 20.117188 141.0625 20.125 L 141.660156 20.136719 C 141.847656 20.148438 141.996094 20.296875 141.996094 20.484375 C 141.996094 20.625 141.90625 20.757812 141.769531 20.808594 L 136.894531 22.582031 C 136.832031 22.601562 136.789062 22.660156 136.789062 22.730469 C 136.789062 22.820312 136.859375 22.890625 136.941406 22.890625 C 136.949219 22.890625 136.949219 22.890625 136.949219 22.890625 L 138.300781 22.894531 C 138.488281 22.894531 138.636719 23.050781 138.636719 23.234375 C 138.636719 23.355469 138.566406 23.476562 138.453125 23.535156 C 137.238281 24.15625 135.359375 24.3125 133.984375 24.875 C 133.742188 24.96875 133.730469 25.082031 133.960938 25.210938 L 134.328125 25.40625 C 134.386719 25.441406 134.421875 25.503906 134.421875 25.574219 C 134.421875 25.65625 134.367188 25.726562 134.292969 25.75 C 133.292969 26.035156 132.433594 26.53125 131.699219 27.234375 C 131.675781 27.257812 131.664062 27.289062 131.664062 27.316406 C 131.664062 27.382812 131.71875 27.433594 131.785156 27.433594 C 131.800781 27.433594 131.820312 27.433594 131.835938 27.421875 C 133.460938 26.558594 134.660156 25.785156 136.578125 25.96875 C 136.699219 25.980469 136.796875 26.085938 136.796875 26.210938 C 136.796875 26.328125 136.707031 26.429688 136.59375 26.449219 C 134.976562 26.726562 133.632812 27.476562 132.546875 28.695312 C 132.363281 28.902344 132.402344 28.964844 132.664062 28.882812 C 134.882812 28.191406 136.949219 27.617188 139.191406 26.671875 C 143.925781 24.675781 149.320312 24.296875 155.523438 24.054688 Z M 106.933594 40.992188 C 106.785156 41.207031 106.832031 41.257812 107.070312 41.164062 L 109.304688 40.242188 C 109.324219 40.234375 109.347656 40.21875 109.359375 40.199219 C 109.40625 40.140625 109.394531 40.050781 109.339844 40.011719 C 109.316406 39.992188 109.300781 39.988281 109.277344 39.980469 C 108.261719 39.859375 107.476562 40.195312 106.933594 40.992188 Z M 145.753906 39 C 146.050781 39.066406 146.285156 39.125 146.457031 39.183594 C 146.464844 39.183594 146.476562 39.183594 146.488281 39.183594 C 146.546875 39.183594 146.597656 39.136719 146.597656 39.078125 C 146.597656 39.042969 146.582031 39.007812 146.550781 38.988281 L 145.585938 38.257812 C 145.40625 38.125 145.308594 38.167969 145.28125 38.386719 C 145.242188 38.71875 145.402344 38.917969 145.753906 39 Z M 110.378906 40.171875 C 111.863281 40.195312 112.976562 39.601562 113.738281 38.410156 C 113.746094 38.390625 113.75 38.367188 113.75 38.34375 C 113.75 38.269531 113.691406 38.207031 113.613281 38.207031 C 113.578125 38.207031 113.542969 38.21875 113.515625 38.25 L 112.882812 39.023438 C 112.847656 39.070312 112.789062 39.09375 112.730469 39.09375 C 112.671875 39.09375 112.617188 39.078125 112.582031 39.035156 L 112.417969 38.871094 C 112.417969 38.871094 112.410156 38.871094 112.410156 38.863281 C 112.328125 38.792969 112.203125 38.800781 112.128906 38.882812 C 112.128906 38.882812 112.121094 38.882812 112.121094 38.886719 L 111.769531 39.332031 C 111.667969 39.449219 111.542969 39.503906 111.390625 39.484375 C 110.917969 39.425781 110.539062 39.550781 110.25 39.859375 C 110.222656 39.894531 110.203125 39.941406 110.203125 39.988281 C 110.203125 40.089844 110.28125 40.164062 110.378906 40.171875 Z M 143.070312 38.121094 L 144.332031 38.652344 C 144.351562 38.65625 144.367188 38.664062 144.386719 38.664062 C 144.460938 38.664062 144.527344 38.597656 144.527344 38.515625 C 144.527344 38.476562 144.511719 38.433594 144.472656 38.402344 L 143.429688 37.605469 C 143.269531 37.480469 143.140625 37.503906 143.035156 37.683594 L 142.964844 37.800781 C 142.945312 37.835938 142.933594 37.871094 142.933594 37.914062 C 142.933594 38 142.988281 38.085938 143.070312 38.121094 Z M 140.472656 36.152344 C 140.082031 37.511719 141.625 37.636719 142.480469 37.90625 C 142.65625 37.960938 142.6875 37.917969 142.574219 37.777344 C 142.058594 37.121094 141.46875 36.542969 140.804688 36.046875 C 140.792969 36.039062 140.78125 36.035156 140.773438 36.027344 C 140.667969 35.976562 140.539062 36.015625 140.488281 36.121094 C 140.484375 36.132812 140.476562 36.144531 140.472656 36.15625 Z M 132.304688 34.859375 L 132.203125 34.957031 C 132.160156 35 132.136719 35.054688 132.136719 35.105469 C 132.136719 35.210938 132.214844 35.300781 132.320312 35.320312 C 132.5625 35.355469 132.679688 35.253906 132.679688 35.011719 C 132.679688 34.894531 132.582031 34.792969 132.460938 34.792969 C 132.402344 34.792969 132.34375 34.816406 132.304688 34.859375 Z M 131.71875 35.054688 L 131.695312 34.597656 C 131.695312 34.566406 131.671875 34.542969 131.640625 34.542969 C 131.640625 34.542969 131.636719 34.542969 131.636719 34.542969 L 131.589844 34.542969 C 130.613281 34.578125 129.824219 34.722656 129.828125 34.863281 L 129.835938 34.945312 C 129.839844 35.058594 130.636719 35.148438 131.613281 35.113281 L 131.664062 35.113281 C 131.695312 35.113281 131.71875 35.089844 131.71875 35.058594 C 131.71875 35.054688 131.71875 35.054688 131.71875 35.054688 Z M 134.476562 35.046875 C 134.246094 35 134.140625 34.859375 134.15625 34.628906 C 134.15625 34.621094 134.15625 34.617188 134.15625 34.609375 C 134.15625 34.519531 134.085938 34.449219 133.996094 34.449219 C 133.945312 34.449219 133.890625 34.472656 133.863281 34.519531 L 133.367188 35.210938 C 133.292969 35.3125 133.320312 35.378906 133.4375 35.40625 L 139.628906 37.03125 C 139.644531 37.039062 139.667969 37.042969 139.691406 37.039062 C 139.777344 37.027344 139.835938 36.945312 139.824219 36.855469 C 139.824219 36.835938 139.816406 36.8125 139.804688 36.796875 L 139.199219 35.785156 C 139.121094 35.65625 139.007812 35.613281 138.867188 35.648438 C 138.703125 35.691406 138.648438 35.785156 138.707031 35.9375 C 138.738281 36.003906 138.738281 36.074219 138.707031 36.128906 C 138.636719 36.265625 138.414062 36.292969 138.207031 36.1875 C 138.125 36.144531 138.050781 36.085938 138.003906 36.015625 L 136.871094 34.46875 C 136.753906 34.308594 136.625 34.296875 136.480469 34.425781 L 135.9375 34.945312 C 135.914062 34.976562 135.875 34.988281 135.839844 34.988281 C 135.761719 34.988281 135.695312 34.933594 135.683594 34.863281 L 135.5625 34.183594 C 135.542969 34.105469 135.480469 34.054688 135.394531 34.054688 C 135.335938 34.054688 135.285156 34.082031 135.253906 34.136719 L 134.875 34.847656 C 134.789062 35.011719 134.660156 35.078125 134.476562 35.046875 Z M 134.652344 32.050781 C 133.554688 31.851562 132.484375 31.945312 131.464844 32.339844 C 131.011719 32.515625 131.023438 32.582031 131.511719 32.542969 L 134.648438 32.28125 C 134.710938 32.28125 134.765625 32.226562 134.765625 32.164062 C 134.765625 32.105469 134.71875 32.050781 134.652344 32.050781 Z M 117.464844 27.613281 L 118.988281 29.058594 C 119 29.070312 119.015625 29.078125 119.035156 29.078125 C 119.050781 29.078125 119.0625 29.070312 119.074219 29.058594 L 119.09375 29.042969 C 119.300781 28.824219 119.167969 28.378906 118.820312 28.050781 C 118.820312 28.050781 118.820312 28.050781 118.816406 28.050781 L 118.472656 27.722656 C 118.113281 27.394531 117.671875 27.300781 117.46875 27.511719 L 117.457031 27.523438 C 117.445312 27.535156 117.441406 27.546875 117.441406 27.566406 C 117.441406 27.582031 117.445312 27.601562 117.464844 27.613281 Z M 120.667969 26.589844 C 120.652344 26.621094 120.644531 26.65625 120.644531 26.695312 C 120.644531 26.808594 120.710938 26.863281 120.824219 26.851562 C 121.0625 26.824219 121.1875 26.683594 121.199219 26.425781 C 121.199219 26.425781 121.199219 26.417969 121.199219 26.417969 C 121.199219 26.3125 121.117188 26.230469 121.011719 26.230469 C 120.992188 26.230469 120.976562 26.234375 120.953125 26.242188 C 120.847656 26.277344 120.773438 26.339844 120.746094 26.4375 C 120.734375 26.464844 120.703125 26.519531 120.667969 26.589844 Z M 124.175781 25.632812 C 124.027344 25.773438 123.886719 25.941406 123.757812 26.109375 C 123.679688 26.21875 123.636719 26.335938 123.632812 26.464844 L 123.554688 28.351562 C 123.554688 28.355469 123.554688 28.363281 123.554688 28.367188 C 123.554688 28.453125 123.621094 28.523438 123.707031 28.523438 C 123.78125 28.523438 123.84375 28.464844 123.855469 28.386719 L 124.453125 25.542969 C 124.480469 25.394531 124.429688 25.355469 124.300781 25.417969 C 124.210938 25.46875 124.167969 25.53125 124.175781 25.632812 Z M 120.171875 23.648438 C 119.6875 24.214844 119.589844 24.804688 119.882812 25.429688 C 119.917969 25.503906 119.988281 25.550781 120.074219 25.550781 C 120.183594 25.550781 120.273438 25.46875 120.28125 25.355469 L 120.375 23.730469 C 120.375 23.722656 120.375 23.722656 120.375 23.722656 C 120.375 23.660156 120.328125 23.605469 120.261719 23.605469 C 120.226562 23.605469 120.195312 23.621094 120.171875 23.648438 Z M 123.625 23.355469 L 123.265625 23.285156 C 123.253906 23.28125 123.238281 23.28125 123.226562 23.28125 C 123.101562 23.28125 122.996094 23.378906 122.996094 23.503906 C 122.996094 23.515625 123 23.535156 123 23.546875 L 123.265625 25.078125 C 123.265625 25.09375 123.277344 25.113281 123.289062 25.128906 C 123.332031 25.183594 123.40625 25.1875 123.460938 25.148438 C 123.472656 25.136719 123.484375 25.117188 123.496094 25.101562 L 124.203125 23.378906 C 124.214844 23.355469 124.222656 23.328125 124.214844 23.296875 C 124.199219 23.214844 124.121094 23.15625 124.039062 23.167969 C 124.011719 23.171875 123.984375 23.1875 123.960938 23.203125 L 123.84375 23.296875 C 123.78125 23.351562 123.707031 23.367188 123.625 23.355469 Z M 122.886719 22.777344 C 122.894531 22.785156 122.894531 22.785156 122.894531 22.785156 C 122.996094 22.84375 123.265625 22.582031 123.496094 22.199219 C 123.726562 21.816406 123.828125 21.453125 123.726562 21.394531 C 123.621094 21.328125 123.355469 21.589844 123.125 21.972656 C 122.894531 22.359375 122.789062 22.71875 122.894531 22.785156 Z M 122.722656 20.128906 L 121.996094 21.28125 C 121.984375 21.304688 121.980469 21.328125 121.980469 21.355469 C 121.980469 21.429688 122.039062 21.488281 122.109375 21.488281 C 122.144531 21.488281 122.175781 21.476562 122.199219 21.453125 C 122.644531 21.074219 122.828125 20.632812 122.746094 20.136719 C 122.746094 20.113281 122.734375 20.113281 122.722656 20.128906 Z M 120.503906 17.707031 L 120.652344 16.679688 C 120.675781 16.484375 120.617188 16.449219 120.460938 16.566406 C 120.253906 16.726562 120.097656 16.683594 119.996094 16.449219 C 119.890625 16.210938 119.867188 15.875 119.929688 15.4375 C 119.929688 15.433594 119.929688 15.421875 119.929688 15.414062 C 119.929688 15.335938 119.871094 15.273438 119.796875 15.273438 C 119.753906 15.273438 119.71875 15.289062 119.695312 15.320312 L 119.53125 15.480469 C 119.484375 15.527344 119.410156 15.554688 119.347656 15.554688 C 119.199219 15.554688 119.074219 15.4375 119.074219 15.289062 C 119.074219 15.277344 119.074219 15.273438 119.074219 15.265625 L 119.210938 13.707031 C 119.21875 13.628906 119.191406 13.617188 119.132812 13.671875 C 118.613281 14.125 118.472656 14.558594 118.757812 15.25 C 119.453125 16.945312 120.355469 18.535156 121.453125 20.019531 C 121.59375 20.207031 121.707031 20.1875 121.789062 19.964844 L 122.539062 17.882812 C 122.546875 17.871094 122.550781 17.859375 122.550781 17.847656 C 122.550781 17.800781 122.511719 17.765625 122.464844 17.765625 C 122.433594 17.765625 122.40625 17.777344 122.386719 17.808594 L 121.582031 18.984375 C 121.546875 19.023438 121.511719 19.058594 121.464844 19.078125 C 121.335938 19.125 121.195312 19.058594 121.148438 18.9375 C 121.128906 18.890625 121.125 18.84375 121.136719 18.792969 C 121.234375 18.351562 121.089844 18.085938 120.703125 18.003906 C 120.546875 17.96875 120.480469 17.867188 120.503906 17.707031 Z M 120.503906 17.707031 "/><path style=" stroke:none;fill-rule:evenodd;fill:#ba4a00;fill-opacity:1;" d="M 198.335938 64.980469 C 199.046875 64.609375 200.421875 63.703125 202.460938 62.261719 C 205.4375 60.160156 209.839844 63.195312 211.199219 65.945312 C 211.214844 65.984375 211.226562 66.03125 211.226562 66.074219 C 211.226562 66.238281 211.09375 66.375 210.925781 66.375 C 210.863281 66.375 210.796875 66.351562 210.742188 66.3125 C 209.835938 65.589844 208.925781 64.953125 208.015625 64.394531 C 204.15625 62.066406 202.449219 66.296875 198.867188 67.539062 C 196.039062 68.054688 194.199219 65.40625 192.558594 64.460938 C 189.628906 62.78125 187.722656 64.585938 185.511719 66.214844 C 185.433594 66.269531 185.328125 66.304688 185.226562 66.3125 L 185.003906 66.3125 C 184.980469 66.3125 184.96875 66.304688 184.949219 66.296875 C 184.84375 66.273438 184.777344 66.164062 184.808594 66.054688 C 184.8125 66.039062 184.820312 66.027344 184.824219 66.007812 C 186.1875 63.527344 189.15625 61.152344 192.167969 61.710938 C 194.523438 62.148438 195.96875 64.78125 198.335938 64.980469 Z M 198.335938 64.980469 "/><path style=" stroke:none;fill-rule:evenodd;fill:#ba4a00;fill-opacity:1;" d="M 207.289062 78.3125 C 205.289062 77.398438 203.257812 78.609375 202.230469 80.363281 C 202.171875 80.460938 202.074219 80.519531 201.960938 80.519531 L 201.765625 80.519531 C 201.546875 80.519531 201.488281 80.421875 201.59375 80.230469 C 203.199219 77.367188 206.410156 73.601562 209.734375 77.0625 C 209.910156 77.242188 210.152344 77.351562 210.414062 77.351562 C 210.667969 77.351562 210.910156 77.242188 211.085938 77.0625 C 213.605469 74.449219 216.871094 77.039062 218.300781 79.28125 C 218.335938 79.34375 218.359375 79.414062 218.351562 79.484375 C 218.347656 79.679688 218.179688 79.828125 217.988281 79.820312 C 217.914062 79.820312 217.84375 79.796875 217.785156 79.753906 C 215.300781 77.839844 213.28125 76.792969 210.949219 79.785156 C 210.878906 79.875 210.773438 79.921875 210.660156 79.921875 C 210.648438 79.921875 210.632812 79.921875 210.621094 79.921875 C 208.972656 79.71875 208.523438 78.875 207.289062 78.3125 Z M 207.289062 78.3125 "/><path style=" stroke:none;fill-rule:evenodd;fill:#003333;fill-opacity:1;" d="M 157.1875 81.386719 C 157.980469 82.230469 158.769531 82.863281 159.160156 83.988281 C 159.675781 85.476562 160.375 87.097656 160.265625 88.632812 C 160.097656 90.90625 159.203125 92.90625 157.578125 94.625 L 156.910156 95.457031 C 156.886719 95.492188 156.847656 95.519531 156.804688 95.519531 C 156.726562 95.519531 156.667969 95.457031 156.667969 95.382812 C 156.667969 95.359375 156.675781 95.335938 156.6875 95.3125 C 157.625 93.503906 157.910156 91.59375 157.53125 89.589844 C 157.472656 89.277344 157.382812 89.265625 157.265625 89.566406 L 156.824219 90.675781 C 156.78125 90.773438 156.753906 90.765625 156.734375 90.664062 L 156.089844 87.339844 C 156.050781 87.101562 155.945312 87.074219 155.773438 87.238281 L 155.511719 87.496094 C 155.484375 87.527344 155.441406 87.546875 155.398438 87.546875 C 155.316406 87.546875 155.253906 87.484375 155.242188 87.410156 C 155.105469 86.453125 154.746094 85.582031 154.171875 84.804688 C 154.144531 84.761719 154.089844 84.738281 154.035156 84.738281 C 153.949219 84.738281 153.871094 84.808594 153.871094 84.902344 L 153.859375 85.75 C 153.859375 85.800781 153.820312 85.84375 153.765625 85.84375 C 153.730469 85.84375 153.695312 85.84375 153.664062 85.84375 C 153.648438 85.84375 153.628906 85.835938 153.625 85.820312 L 152.425781 83.421875 C 152.382812 83.34375 152.308594 83.289062 152.21875 83.289062 C 152.140625 83.289062 152.070312 83.332031 152.03125 83.394531 L 151.847656 83.667969 C 151.78125 83.761719 151.710938 83.769531 151.640625 83.679688 C 150.394531 82.148438 147.796875 81.804688 145.949219 81.9375 C 145.644531 81.953125 145.632812 82.019531 145.921875 82.125 C 146.328125 82.273438 146.839844 82.183594 147.226562 82.316406 C 151.882812 83.855469 154.480469 87.25 155.257812 91.972656 C 156.15625 97.378906 154.445312 101.917969 149.816406 104.914062 C 149.792969 104.9375 149.761719 104.945312 149.734375 104.945312 C 149.664062 104.945312 149.605469 104.886719 149.605469 104.8125 C 149.605469 104.777344 149.621094 104.738281 149.652344 104.714844 C 150.707031 103.667969 151.429688 102.425781 151.8125 100.992188 C 151.816406 100.964844 151.824219 100.941406 151.816406 100.917969 C 151.804688 100.820312 151.71875 100.746094 151.617188 100.761719 C 151.59375 100.761719 151.570312 100.773438 151.550781 100.777344 L 150.207031 101.503906 C 150.1875 101.515625 150.160156 101.523438 150.136719 101.523438 C 150.046875 101.523438 149.976562 101.453125 149.976562 101.363281 C 149.976562 101.328125 149.988281 101.296875 150.003906 101.269531 C 150.777344 100.238281 151.375 99.121094 151.800781 97.910156 C 151.8125 97.886719 151.8125 97.871094 151.8125 97.847656 C 151.8125 97.746094 151.734375 97.667969 151.632812 97.667969 C 151.597656 97.667969 151.5625 97.679688 151.535156 97.703125 L 150.070312 98.671875 C 150.035156 98.691406 150 98.703125 149.957031 98.703125 C 149.847656 98.703125 149.75 98.609375 149.75 98.496094 C 149.75 98.453125 149.761719 98.417969 149.78125 98.382812 C 150.464844 97.363281 150.902344 96.234375 151.097656 95.003906 C 151.097656 94.996094 151.097656 94.992188 151.097656 94.984375 C 151.097656 94.921875 151.042969 94.867188 150.972656 94.867188 C 150.945312 94.867188 150.914062 94.878906 150.890625 94.898438 L 149.699219 96.0625 C 149.679688 96.078125 149.65625 96.089844 149.632812 96.101562 C 149.550781 96.125 149.46875 96.078125 149.4375 95.996094 C 149.433594 95.972656 149.433594 95.949219 149.433594 95.925781 L 150.140625 92.167969 C 150.140625 92.15625 150.148438 92.148438 150.148438 92.136719 C 150.148438 92.058594 150.082031 91.996094 150.003906 91.996094 C 149.964844 91.996094 149.929688 92.007812 149.898438 92.035156 L 149.457031 92.457031 C 149.433594 92.480469 149.398438 92.492188 149.363281 92.492188 C 149.285156 92.492188 149.21875 92.433594 149.21875 92.351562 C 149.21875 92.34375 149.21875 92.339844 149.21875 92.332031 C 149.398438 91.273438 149.320312 87.640625 148.246094 87.019531 C 148.109375 86.941406 148.0625 86.976562 148.109375 87.132812 C 149.585938 91.917969 147.308594 99.09375 142.65625 101.515625 C 142.632812 101.527344 142.601562 101.535156 142.578125 101.535156 C 142.507812 101.523438 142.457031 101.453125 142.46875 101.378906 C 142.472656 101.355469 142.484375 101.332031 142.496094 101.308594 C 143.144531 100.570312 143.554688 99.714844 143.726562 98.738281 C 143.726562 98.722656 143.730469 98.703125 143.730469 98.691406 C 143.730469 98.542969 143.605469 98.425781 143.464844 98.425781 C 143.429688 98.425781 143.394531 98.429688 143.363281 98.441406 L 142.898438 98.625 C 142.878906 98.632812 142.863281 98.632812 142.84375 98.632812 C 142.761719 98.632812 142.691406 98.566406 142.691406 98.480469 C 142.691406 98.449219 142.699219 98.417969 142.722656 98.390625 C 143.476562 97.378906 143.902344 96.238281 143.992188 94.972656 C 143.992188 94.960938 143.992188 94.949219 143.992188 94.9375 C 143.992188 94.660156 143.765625 94.4375 143.496094 94.4375 C 143.417969 94.4375 143.339844 94.453125 143.277344 94.488281 L 142.34375 94.9375 C 142.324219 94.949219 142.300781 94.949219 142.285156 94.949219 C 142.203125 94.949219 142.132812 94.886719 142.132812 94.800781 C 142.132812 94.777344 142.136719 94.753906 142.148438 94.738281 C 143.070312 92.910156 143.695312 90.992188 144.027344 88.96875 C 144.027344 88.957031 144.027344 88.941406 144.027344 88.921875 C 144.027344 88.769531 143.902344 88.636719 143.742188 88.636719 C 143.683594 88.636719 143.617188 88.660156 143.570312 88.699219 L 142.398438 89.585938 C 142.113281 89.800781 142.03125 89.738281 142.144531 89.402344 C 142.496094 88.347656 142.746094 87.265625 142.898438 86.15625 C 143.09375 84.730469 142.828125 84.644531 142.109375 85.882812 C 139.203125 90.871094 138.265625 97.816406 137.703125 103.542969 C 136.941406 111.296875 137.886719 118.804688 140.53125 126.066406 C 140.253906 126.167969 140.023438 126.367188 139.871094 126.644531 C 139.804688 126.757812 139.765625 126.875 139.734375 127 C 139.007812 126.691406 138.328125 126.289062 137.675781 125.847656 C 135.828125 124.613281 134.226562 123.183594 132.171875 122.242188 C 132.121094 122.21875 132.074219 122.195312 132.019531 122.183594 C 131.914062 122.148438 131.800781 122.113281 131.695312 122.082031 C 131.984375 114.773438 132.761719 107.355469 134.074219 100.15625 C 134.988281 95.152344 136.464844 91.308594 138.613281 85.996094 C 138.617188 85.980469 138.617188 85.957031 138.613281 85.933594 C 138.601562 85.871094 138.542969 85.824219 138.484375 85.835938 C 138.460938 85.84375 138.441406 85.855469 138.425781 85.871094 C 136.808594 87.363281 135.632812 89.996094 135.148438 92.078125 C 135.136719 92.113281 135.117188 92.144531 135.09375 92.167969 C 135.023438 92.226562 134.917969 92.21875 134.859375 92.15625 C 134.835938 92.125 134.824219 92.089844 134.824219 92.054688 L 134.71875 90.859375 C 134.707031 90.726562 134.59375 90.617188 134.457031 90.617188 C 134.382812 90.617188 134.308594 90.652344 134.257812 90.710938 C 133.164062 92.023438 132.507812 93.539062 132.304688 95.246094 C 132.296875 95.316406 132.230469 95.375 132.15625 95.375 C 132.097656 95.375 132.039062 95.339844 132.019531 95.273438 L 131.902344 94.972656 C 131.847656 94.839844 131.761719 94.808594 131.636719 94.886719 C 130.515625 95.589844 129.867188 97.023438 129.382812 98.1875 C 129.371094 98.210938 129.351562 98.234375 129.324219 98.253906 C 129.257812 98.289062 129.175781 98.261719 129.140625 98.1875 C 129.128906 98.164062 129.121094 98.128906 129.128906 98.101562 C 130.101562 94.015625 130.34375 89.660156 133.402344 86.511719 C 134.847656 85.023438 137.171875 83.957031 139.121094 82.957031 C 139.160156 82.945312 139.1875 82.910156 139.1875 82.871094 C 139.1875 82.816406 139.144531 82.777344 139.089844 82.777344 C 139.085938 82.777344 139.078125 82.777344 139.074219 82.777344 C 137.398438 82.953125 135.992188 83.65625 134.859375 84.875 C 134.769531 84.972656 134.683594 84.972656 134.597656 84.867188 L 134.410156 84.636719 C 134.363281 84.578125 134.292969 84.546875 134.222656 84.546875 C 134.15625 84.546875 134.089844 84.574219 134.042969 84.621094 C 133.175781 85.476562 132.523438 86.476562 132.066406 87.617188 C 132.03125 87.6875 131.960938 87.734375 131.882812 87.734375 C 131.773438 87.734375 131.683594 87.640625 131.683594 87.535156 C 131.683594 87.519531 131.683594 87.507812 131.683594 87.503906 L 131.890625 86.363281 C 131.890625 86.351562 131.890625 86.339844 131.890625 86.328125 C 131.890625 86.210938 131.796875 86.113281 131.675781 86.113281 C 131.601562 86.113281 131.535156 86.148438 131.496094 86.210938 C 130.601562 87.609375 129.914062 89.105469 129.417969 90.6875 C 129.394531 90.753906 129.335938 90.796875 129.269531 90.796875 C 129.1875 90.796875 129.117188 90.730469 129.117188 90.640625 L 129.152344 88.492188 C 129.15625 88.394531 129.117188 88.367188 129.019531 88.390625 C 128.933594 88.417969 128.875 88.472656 128.851562 88.566406 C 128.539062 89.644531 128.199219 90.664062 127.835938 91.621094 C 127.804688 91.71875 127.714844 91.78125 127.617188 91.78125 C 127.503906 91.78125 127.402344 91.695312 127.386719 91.582031 L 127.214844 90.664062 C 127.199219 90.558594 127.101562 90.488281 127.003906 90.488281 C 126.933594 90.488281 126.867188 90.519531 126.824219 90.570312 C 125.496094 92.367188 124.625 94.378906 124.210938 96.59375 C 124.191406 96.699219 124.097656 96.777344 123.984375 96.777344 C 123.875 96.777344 123.78125 96.699219 123.761719 96.59375 C 122.042969 87.4375 128.367188 81.257812 137.054688 80.835938 C 137.933594 80.796875 138.882812 81.074219 139.847656 81.191406 C 139.871094 81.191406 139.894531 81.191406 139.910156 81.179688 C 139.964844 81.15625 139.988281 81.089844 139.964844 81.039062 C 139.953125 81.015625 139.941406 81.003906 139.917969 80.992188 C 138.347656 80.082031 136.6875 79.890625 134.949219 80.421875 C 134.835938 80.460938 134.707031 80.421875 134.550781 80.316406 C 134.441406 80.242188 134.320312 80.222656 134.199219 80.269531 C 133.195312 80.636719 132.257812 81.109375 131.371094 81.683594 C 131.210938 81.789062 131.082031 81.832031 130.980469 81.8125 C 130.867188 81.789062 130.796875 81.710938 130.78125 81.582031 C 130.761719 81.433594 130.679688 81.386719 130.542969 81.445312 C 129.503906 81.894531 128.609375 82.535156 127.847656 83.359375 C 127.816406 83.394531 127.769531 83.414062 127.730469 83.414062 C 127.632812 83.414062 127.558594 83.335938 127.558594 83.25 C 127.558594 83.230469 127.558594 83.21875 127.5625 83.207031 L 127.667969 82.800781 C 127.734375 82.539062 127.679688 82.515625 127.503906 82.714844 C 126.925781 83.414062 126.472656 84.175781 126.140625 85.007812 C 126.140625 85.015625 126.136719 85.023438 126.136719 85.027344 C 126.074219 85.144531 125.929688 85.191406 125.816406 85.132812 C 125.808594 85.128906 125.796875 85.128906 125.792969 85.121094 L 125.390625 84.878906 C 125.386719 84.878906 125.386719 84.878906 125.386719 84.875 C 125.25 84.796875 125.066406 84.84375 124.988281 84.980469 C 124.988281 84.980469 124.988281 84.984375 124.988281 84.984375 L 123.707031 87.277344 C 123.683594 87.328125 123.632812 87.355469 123.578125 87.355469 C 123.496094 87.355469 123.429688 87.289062 123.429688 87.214844 C 123.429688 87.207031 123.429688 87.207031 123.429688 87.203125 C 123.820312 77.789062 134.441406 76.074219 141.152344 79.753906 C 141.285156 79.828125 141.40625 79.808594 141.503906 79.707031 C 142.277344 78.957031 143.152344 78.828125 144.125 79.304688 C 144.21875 79.359375 144.292969 79.441406 144.316406 79.542969 C 144.378906 79.78125 144.511719 79.933594 144.710938 80 C 144.839844 80.046875 145.015625 80.027344 145.234375 79.945312 C 149.628906 78.285156 153.613281 78.761719 157.1875 81.386719 Z M 157.1875 81.386719 "/><path style=" stroke:none;fill-rule:evenodd;fill:#ba4a00;fill-opacity:1;" d="M 176.539062 79.589844 L 175.078125 81.175781 C 175.027344 81.234375 174.945312 81.269531 174.867188 81.269531 C 174.703125 81.269531 174.566406 81.132812 174.566406 80.96875 C 174.566406 80.957031 174.566406 80.9375 174.574219 80.921875 C 175.089844 78.125 177.582031 77.011719 179.648438 79.035156 C 179.808594 79.199219 180.078125 79.21875 180.261719 79.0625 C 181.863281 77.71875 183.515625 77.679688 185.214844 78.964844 C 185.296875 79.023438 185.34375 79.125 185.34375 79.222656 C 185.34375 79.371094 185.25 79.496094 185.109375 79.535156 L 184.730469 79.648438 C 184.605469 79.683594 184.472656 79.667969 184.363281 79.597656 C 182.824219 78.597656 181.449219 80.304688 180.515625 81.320312 C 180.339844 81.515625 180.042969 81.550781 179.824219 81.40625 L 177.039062 79.53125 C 176.878906 79.425781 176.667969 79.449219 176.539062 79.589844 Z M 176.539062 79.589844 "/><g clip-rule="nonzero" clip-path="url(#a6788f0b70)"><path style=" stroke:none;fill-rule:evenodd;fill:#007b9a;fill-opacity:1;" d="M 70.195312 95.152344 C 71.382812 95.238281 72.191406 95.257812 73.222656 95.972656 C 75.320312 97.425781 77.414062 98.886719 79.496094 100.351562 C 80.648438 101.160156 81.421875 102.230469 82.332031 103.285156 C 82.707031 103.726562 83.128906 103.914062 83.582031 103.863281 C 86.882812 103.449219 90.097656 102.710938 93.238281 101.652344 C 93.375 101.605469 93.5 101.617188 93.621094 101.667969 C 93.898438 101.804688 94.140625 101.984375 94.355469 102.207031 C 98.214844 106.332031 102.140625 110.457031 106.117188 114.578125 C 106.160156 114.625 106.226562 114.652344 106.289062 114.652344 C 106.335938 114.652344 106.378906 114.640625 106.414062 114.617188 L 110.03125 112.519531 L 110.558594 112.226562 C 110.675781 112.160156 110.800781 112.152344 110.921875 112.21875 C 113.023438 113.242188 117.398438 114.894531 118.828125 116.617188 C 119.953125 117.964844 121.359375 119.039062 123.042969 119.835938 C 125.761719 121.285156 128.632812 122.46875 131.648438 123.394531 C 134.433594 124.664062 136.464844 126.992188 139.273438 128.183594 C 140.023438 128.496094 140.808594 128.808594 141.628906 129.121094 L 154.433594 133.835938 C 154.542969 133.878906 154.617188 133.984375 154.617188 134.105469 C 154.617188 134.257812 154.492188 134.386719 154.339844 134.386719 C 149.125 134.398438 143.96875 134.398438 138.855469 134.386719 C 137.757812 134.382812 136.589844 134.59375 135.429688 134.648438 C 117.929688 134.066406 100.324219 134.40625 82.703125 134.347656 C 81.953125 134.339844 81.851562 134.085938 82.40625 133.582031 C 84 132.125 85.703125 130.550781 87.5 128.867188 C 89.367188 127.125 92.0625 126.097656 94.34375 124.96875 C 94.4375 124.925781 94.519531 124.847656 94.574219 124.753906 L 97.136719 120.175781 C 97.199219 120.054688 97.292969 119.957031 97.417969 119.882812 L 104.148438 116.097656 C 104.3125 116 104.304688 115.925781 104.125 115.859375 C 102.890625 115.421875 101.664062 115.015625 100.433594 114.648438 C 99.128906 114.253906 97.277344 114.972656 95.972656 115.214844 C 95.9375 115.222656 95.902344 115.222656 95.871094 115.222656 C 95.558594 115.222656 95.300781 114.96875 95.300781 114.652344 C 95.300781 114.617188 95.304688 114.582031 95.3125 114.554688 L 95.648438 112.804688 C 95.675781 112.664062 95.605469 112.515625 95.480469 112.445312 L 91.570312 110.273438 C 91.527344 110.246094 91.472656 110.234375 91.425781 110.234375 C 91.355469 110.234375 91.285156 110.261719 91.230469 110.308594 L 88.375 112.816406 C 88.308594 112.875 88.28125 112.964844 88.308594 113.046875 C 88.730469 114.324219 90.207031 116.984375 89.734375 118.175781 C 89.136719 119.695312 88.304688 123.222656 87.195312 124.222656 C 84.652344 126.515625 81.953125 128.609375 79.109375 130.503906 C 78.988281 130.582031 78.859375 130.605469 78.71875 130.570312 L 73.726562 129.429688 C 73.617188 129.40625 73.519531 129.421875 73.429688 129.480469 L 65.898438 134.324219 C 65.867188 134.339844 65.839844 134.351562 65.808594 134.351562 C 65.714844 134.351562 65.644531 134.273438 65.644531 134.1875 C 65.644531 134.167969 65.644531 134.15625 65.648438 134.144531 C 66.636719 130.546875 67.628906 126.933594 68.613281 123.304688 C 69.453125 120.257812 69.007812 116.191406 69.015625 112.992188 C 69.015625 112.894531 69.066406 112.839844 69.171875 112.839844 L 74.203125 113.039062 C 74.238281 113.039062 74.269531 113.046875 74.292969 113.0625 C 74.449219 113.152344 74.605469 113.1875 74.761719 113.160156 C 74.828125 113.140625 74.875 113.082031 74.875 113.015625 C 74.875 112.96875 74.859375 112.933594 74.828125 112.90625 C 73.53125 111.804688 72.851562 110.464844 71.351562 109.613281 C 71.226562 109.542969 71.128906 109.449219 71.058594 109.324219 L 68 104.011719 C 67.992188 104 67.988281 103.988281 67.988281 103.976562 C 67.980469 103.910156 68.023438 103.851562 68.082031 103.84375 C 68.09375 103.839844 68.109375 103.84375 68.128906 103.84375 L 78.277344 106.609375 C 78.433594 106.652344 78.507812 106.59375 78.5 106.433594 L 78.375 103.285156 C 78.371094 103.164062 78.324219 103.070312 78.230469 103 C 75.863281 101.234375 73.71875 99.222656 71.800781 96.972656 C 71.695312 96.847656 71.5625 96.769531 71.40625 96.746094 L 67.226562 96.089844 C 67.203125 96.085938 67.179688 96.085938 67.15625 96.085938 C 67.066406 96.085938 66.976562 96.113281 66.902344 96.160156 C 65.839844 96.863281 65.625 97.640625 65.921875 98.914062 C 66.238281 100.3125 66.46875 101.71875 66.613281 103.128906 C 66.753906 104.554688 65.769531 106.195312 66.039062 107.355469 C 66.417969 108.957031 66.625 110.570312 66.671875 112.207031 C 66.671875 112.347656 66.601562 112.425781 66.457031 112.445312 C 62.785156 112.816406 62.421875 108.367188 58.84375 108.265625 C 58.671875 108.257812 58.644531 108.324219 58.753906 108.453125 C 61.855469 112.164062 63.210938 117.953125 64.398438 122.550781 C 64.429688 122.667969 64.378906 122.734375 64.25 122.726562 C 59.628906 122.644531 54.949219 122.390625 50.339844 122.492188 C 48.964844 122.519531 47.429688 122.21875 45.722656 121.59375 C 43.46875 120.753906 41.148438 120.003906 38.757812 119.339844 C 38.746094 119.339844 38.734375 119.335938 38.722656 119.335938 C 38.652344 119.335938 38.597656 119.386719 38.597656 119.457031 C 38.597656 119.496094 38.617188 119.53125 38.640625 119.554688 C 39.484375 120.363281 40.363281 121.15625 41.289062 121.929688 C 42.199219 122.691406 43.933594 123.21875 44.558594 123.84375 C 47.792969 127.082031 51.09375 130.441406 54.457031 133.921875 C 54.511719 133.96875 54.535156 134.039062 54.535156 134.109375 C 54.535156 134.261719 54.410156 134.394531 54.257812 134.394531 C 52.355469 134.386719 50.46875 134.480469 48.585938 134.167969 C 46.054688 133.742188 43.007812 133.453125 40.703125 132.265625 C 37.023438 130.363281 32.984375 129.617188 29.09375 128.183594 C 29.089844 128.183594 29.078125 128.183594 29.070312 128.183594 C 29.03125 128.183594 28.992188 128.21875 28.992188 128.257812 C 28.992188 128.28125 29.007812 128.304688 29.023438 128.324219 C 32.445312 130.746094 36.667969 132.347656 40.480469 134.121094 C 40.527344 134.144531 40.558594 134.199219 40.558594 134.25 C 40.558594 134.328125 40.5 134.386719 40.421875 134.394531 L 0.613281 134.394531 C 0.554688 134.386719 0.511719 134.339844 0.511719 134.285156 C 0.511719 134.238281 0.539062 134.203125 0.578125 134.1875 L 10.300781 130.996094 C 11.464844 130.746094 12.566406 130.136719 13.625 129.164062 C 16.308594 126.679688 19.023438 124.234375 21.773438 121.824219 C 22.507812 121.179688 23.316406 120.660156 24.1875 120.261719 C 27.972656 118.542969 31.519531 116.074219 35.140625 114.023438 C 35.875 113.601562 36.515625 113.089844 37.058594 112.484375 C 38.96875 110.339844 40.839844 108.160156 42.664062 105.941406 C 43.832031 104.523438 50.898438 102.574219 52.917969 101.898438 C 53.742188 101.621094 54.824219 101.101562 55.550781 100.386719 C 57.609375 98.359375 59.660156 96.316406 61.695312 94.246094 C 61.789062 94.152344 61.902344 94.117188 62.03125 94.128906 Z M 93.984375 104.082031 C 93.816406 103.925781 93.707031 103.957031 93.632812 104.167969 L 92.554688 107.371094 C 92.507812 107.503906 92.53125 107.621094 92.621094 107.726562 L 95.59375 111.292969 C 95.605469 111.304688 95.617188 111.308594 95.628906 111.320312 C 95.695312 111.355469 95.777344 111.339844 95.820312 111.28125 C 95.824219 111.269531 95.832031 111.25 95.832031 111.238281 C 96.617188 108.425781 95.996094 106.039062 93.984375 104.082031 Z M 114.175781 118.316406 L 115.921875 118.011719 C 116.019531 118 116.082031 117.917969 116.082031 117.820312 C 116.082031 117.738281 116.035156 117.667969 115.964844 117.636719 C 114.222656 116.90625 112.78125 115.792969 111.648438 114.300781 C 111.613281 114.257812 111.574219 114.234375 111.519531 114.234375 C 111.453125 114.234375 111.394531 114.277344 111.371094 114.335938 L 110.054688 117.589844 C 110.007812 117.726562 110.039062 117.832031 110.15625 117.917969 L 111.707031 118.984375 C 111.828125 119.070312 111.820312 119.152344 111.703125 119.226562 L 104.925781 123.667969 C 104.902344 123.683594 104.890625 123.707031 104.890625 123.730469 C 104.890625 123.777344 104.933594 123.816406 104.972656 123.816406 C 104.984375 123.816406 104.992188 123.816406 104.996094 123.816406 L 109.925781 122.378906 C 110.078125 122.332031 110.199219 122.371094 110.292969 122.503906 L 113.273438 126.597656 C 113.34375 126.6875 113.425781 126.761719 113.527344 126.816406 L 120.90625 130.730469 C 120.917969 130.734375 120.933594 130.742188 120.945312 130.742188 C 120.992188 130.742188 121.027344 130.699219 121.027344 130.660156 C 121.027344 130.632812 121.015625 130.609375 121 130.59375 L 115.292969 125.457031 C 115.183594 125.355469 115.148438 125.234375 115.191406 125.089844 L 115.921875 122.65625 C 115.933594 122.609375 115.941406 122.5625 115.941406 122.515625 C 115.941406 122.4375 115.921875 122.359375 115.886719 122.289062 L 114.035156 118.585938 C 113.964844 118.429688 114.011719 118.34375 114.175781 118.316406 Z M 114.175781 118.316406 "/></g><path style=" stroke:none;fill-rule:evenodd;fill:#00459a;fill-opacity:1;" d="M 233.351562 107.550781 C 233.765625 107.746094 234.152344 107.992188 234.578125 108.101562 C 239.660156 109.363281 244.679688 110.746094 249.632812 112.230469 C 249.648438 112.238281 249.671875 112.242188 249.691406 112.242188 C 249.789062 112.242188 249.867188 112.160156 249.867188 112.058594 C 249.867188 112.046875 249.867188 112.035156 249.867188 112.023438 C 249.402344 109.542969 248.207031 104.738281 246.25 103.1875 C 244.777344 102.019531 239.980469 99.488281 238.398438 101.171875 C 236.59375 103.101562 234.867188 105.039062 233.234375 106.984375 C 233.175781 107.046875 233.144531 107.128906 233.144531 107.21875 C 233.144531 107.359375 233.226562 107.492188 233.351562 107.550781 Z M 206.777344 103.585938 C 206.917969 103.660156 207.15625 103.726562 207.445312 103.757812 C 214.0625 104.316406 220.679688 105.292969 227.289062 106.675781 C 228.167969 106.859375 228.777344 106.769531 229.113281 106.402344 C 230.566406 104.824219 233.5625 102.195312 234.265625 100.269531 C 234.289062 100.210938 234.300781 100.144531 234.300781 100.082031 C 234.300781 99.8125 234.101562 99.589844 233.835938 99.554688 C 227.128906 98.703125 211.394531 96.316406 206.753906 103.039062 C 206.582031 103.289062 206.59375 103.472656 206.777344 103.585938 Z M 244.277344 97.769531 C 246.300781 98.289062 248.375 98.820312 250.480469 99.359375 C 252.488281 99.867188 256.4375 100.042969 257.09375 102.566406 C 257.121094 102.6875 257.082031 102.773438 256.96875 102.828125 C 255.722656 103.382812 254.835938 103.679688 254.3125 103.695312 C 253.667969 103.726562 253.320312 103.957031 253.253906 104.386719 C 253.21875 104.613281 253.308594 104.945312 253.519531 105.382812 C 255.558594 109.554688 256.875 114.789062 261.773438 116.777344 C 266.207031 118.566406 270.484375 120.660156 274.625 123.046875 C 274.5 123.023438 274.375 123.003906 274.25 122.988281 C 274.152344 122.976562 274.0625 122.976562 273.960938 122.988281 C 271.613281 123.222656 269.238281 123.300781 266.910156 123.679688 C 260.261719 120.996094 253.515625 118.574219 246.710938 116.292969 C 222.910156 108.3125 198.417969 104.496094 173.246094 104.847656 C 173.214844 104.847656 173.195312 104.875 173.195312 104.902344 C 173.195312 104.921875 173.203125 104.9375 173.21875 104.949219 C 175.003906 105.878906 176.539062 107.023438 177.8125 108.394531 C 178.898438 109.558594 179.578125 111.46875 181.335938 111.742188 C 183.3125 112.035156 185.28125 112.324219 187.234375 112.761719 C 200.953125 115.824219 214.515625 119.457031 227.925781 123.671875 C 235.191406 125.960938 242.726562 128.003906 250.339844 128.644531 C 248.699219 129.25 247.070312 129.871094 245.40625 130.421875 C 241.875 131.585938 238.25 132.003906 234.550781 131.667969 C 228.027344 131.070312 221.839844 128.417969 215.332031 127.75 C 210.613281 127.265625 205.65625 127.296875 201.058594 128.578125 C 197.632812 129.53125 193.300781 128.039062 190.253906 126.011719 C 186.355469 122.296875 183.449219 117.644531 179.695312 112.367188 C 177.097656 108.726562 175.089844 106.617188 171.160156 105.296875 C 171.148438 105.292969 171.144531 105.292969 171.136719 105.285156 C 171.042969 105.246094 171 105.128906 171.046875 105.03125 C 171.046875 105.027344 171.054688 105.019531 171.058594 105.015625 C 171.460938 104.335938 171.839844 103.890625 172.695312 103.773438 C 182.246094 102.414062 191.738281 102.34375 201.347656 103.195312 C 202.433594 103.402344 203.898438 103.785156 204.839844 103.015625 C 205.910156 102.144531 207 101.171875 208.117188 100.109375 C 208.160156 100.074219 208.175781 100.019531 208.175781 99.960938 C 208.175781 99.867188 208.113281 99.785156 208.015625 99.765625 C 207.46875 99.648438 207.214844 99.347656 207.25 98.855469 C 207.390625 97.082031 210.792969 96.535156 212.085938 96.410156 C 220.621094 95.558594 228.976562 96.078125 237.507812 96.351562 C 238.78125 96.398438 241.035156 96.863281 244.277344 97.769531 Z M 244.277344 97.769531 "/><g clip-rule="nonzero" clip-path="url(#2d591f6514)"><path style=" stroke:none;fill-rule:evenodd;fill:#00ccff;fill-opacity:1;" d="M 274.09375 124.246094 C 278.742188 124.84375 275.902344 131.664062 274.574219 133.898438 C 274.488281 134.042969 274.359375 134.121094 274.1875 134.132812 C 265.964844 134.652344 257.824219 135.050781 249.777344 135.308594 C 218.894531 136.3125 186.589844 136.460938 155.109375 135.445312 C 155.570312 135.179688 155.878906 134.675781 155.878906 134.105469 C 155.878906 133.464844 155.488281 132.890625 154.894531 132.660156 C 154.886719 132.65625 154.882812 132.65625 154.871094 132.648438 L 142.066406 127.933594 C 141.765625 127.820312 141.464844 127.703125 141.164062 127.585938 C 141.109375 127.472656 141.046875 127.367188 140.980469 127.253906 L 159.472656 126.570312 L 187.664062 125.984375 L 187.949219 126.007812 C 188.066406 126.019531 188.191406 126.066406 188.289062 126.148438 C 191.648438 128.851562 197.101562 130.996094 201.394531 129.796875 C 205.832031 128.558594 210.660156 128.542969 215.207031 129.007812 C 221.40625 129.640625 227.925781 132.332031 234.429688 132.925781 C 238.316406 133.28125 242.105469 132.84375 245.800781 131.628906 C 249.1875 130.511719 253.46875 128.621094 257.695312 127.636719 C 260.066406 127.089844 262.296875 126.179688 264.625 125.488281 C 267.644531 124.59375 270.910156 124.566406 274.09375 124.246094 Z M 274.09375 124.246094 "/></g></g></svg>